<?xml version="1.0" encoding="UTF-8"?>
<svg width="18px" height="18px" viewBox="0 0 18 18" version="1.1" xmlns="http://www.w3.org/2000/svg" xmlns:xlink="http://www.w3.org/1999/xlink">
    <!-- Generator: Sketch 59.1 (86144) - https://sketch.com -->
    <title>Path</title>
    <desc>Created with Sketch.</desc>
    <g id="Page-1" stroke="none" stroke-width="1" fill="none" fill-rule="evenodd">
        <path d="M10.1454648,9.03959584 L17.7545634,1.39702072 C18.0818122,1.06833219 18.0818122,0.575204935 17.7545634,0.246516401 C17.4273146,-0.0821721335 16.9363474,-0.0821721335 16.6090986,0.246516401 L9,7.88909152 L1.3909014,0.246516401 C1.06365261,-0.0821721335 0.572685384,-0.0821721335 0.245436593,0.246516401 C-0.0818121976,0.575204935 -0.0818121976,1.06833219 0.245436593,1.39702072 L7.85444116,9.03959584 L0.245436593,16.6820765 C-0.0818121976,17.0107651 -0.0818121976,17.5038923 0.245436593,17.8325808 C0.409060988,17.9969251 0.736309779,17.9969251 0.899934174,17.9969251 C1.06355857,17.9969251 1.39080736,17.9969251 1.39080736,17.8325808 L8.99990596,10.1900057 L16.6090046,17.8325808 C16.772629,17.9969251 17.0998778,17.9969251 17.2635021,17.9969251 C17.4271265,17.9969251 17.7543753,17.9969251 17.7543753,17.8325808 C18.0816241,17.5038923 18.0816241,17.0107651 17.7543753,16.6820765 L10.1454648,9.03959584 Z" id="Path" fill="#F8F8F8" fill-rule="nonzero"></path>
    </g>
</svg>