<?xml version="1.0" encoding="UTF-8"?>
<svg width="60px" height="60px" viewBox="0 0 60 60" version="1.1" xmlns="http://www.w3.org/2000/svg" xmlns:xlink="http://www.w3.org/1999/xlink">
    <!-- Generator: Sketch 59.1 (86144) - https://sketch.com -->
    <title>Group 62</title>
    <desc>Created with Sketch.</desc>
    <defs>
        <linearGradient x1="53.8571893%" y1="77.4354024%" x2="53.8571893%" y2="0%" id="linearGradient-1">
            <stop stop-color="#F0CA4C" offset="0%"></stop>
            <stop stop-color="#F2F27C" offset="100%"></stop>
        </linearGradient>
    </defs>
    <g id="Page-1" stroke="none" stroke-width="1" fill="none" fill-rule="evenodd">
        <g id="Group-62">
            <rect id="Rectangle" fill="#070310" x="5" y="5" width="50" height="50"></rect>
            <path d="M4.0568357,59.7954997 C1.98965791,59.2544477 0.755810653,58.0203417 0.18519947,55.92305 C0.0105609338,55.2811639 0,53.8120792 0,30.1610626 C0,6.46252004 0.0102779112,5.03973669 0.18643848,4.35347976 C0.631637133,2.61914434 1.58875438,1.37252387 2.98746018,0.705221688 C4.56913166,-0.0493716346 2.64757945,0.000686839012 30.0318355,0.000686839012 C57.336886,0.000686839012 55.502813,-0.0456109081 57.0274669,0.682140519 C58.3339032,1.30573204 59.2510356,2.49576149 59.7709732,4.24198963 C59.9478885,4.83616505 59.9596004,6.21967079 59.986367,29.6860441 C60.0178055,57.2474392 60.0566184,55.6211624 59.3307453,57.1567276 C58.6701706,58.5541552 57.4106145,59.500082 55.7392678,59.8539271 C55.1371751,59.9813976 51.3036997,60.003044 29.9270123,60 C5.55033413,59.9958494 4.7996661,59.9899252 4.0568357,59.7954997 Z M34.8278778,37.3084433 C34.8489787,26.2338487 34.8814886,23.3540335 34.9854082,23.3540335 C35.0574259,23.3540335 38.2529171,26.487885 42.0864993,30.3181479 C45.9200816,34.1484109 49.0921595,37.2822624 49.1355615,37.2822624 C49.1789635,37.2822624 49.2144745,34.5137316 49.2144745,31.129972 L49.2144745,24.9776817 L39.8068135,15.5785285 C34.6326007,10.4089941 30.3517851,6.17937485 30.2938913,6.17937485 C30.1038521,6.17937485 11.5960332,24.7582744 11.4829017,25.0626083 C11.3245884,25.4884864 11.3316933,37.1394802 11.4903264,37.2374282 C11.5596857,37.2802538 14.4306486,34.4892912 18.5399776,30.384217 C22.3529276,26.5752139 25.5078606,23.458757 25.5509387,23.458757 C25.5940168,23.458757 25.6292626,29.6353066 25.6292626,37.1844234 C25.6292626,46.4942579 25.6643658,50.9756195 25.738374,51.1137739 C25.8442004,51.3113233 25.9823122,51.3166349 30.3243875,51.2901555 L34.8012894,51.2628531 L34.8278778,37.3084433 Z" id="path1310" fill="url(#linearGradient-1)" fill-rule="nonzero"></path>
        </g>
    </g>
</svg>