<?xml version="1.0" encoding="UTF-8"?>
<svg width="39px" height="30px" viewBox="0 0 39 30" version="1.1" xmlns="http://www.w3.org/2000/svg" xmlns:xlink="http://www.w3.org/1999/xlink">
    <!-- Generator: Sketch 59.1 (86144) - https://sketch.com -->
    <title>Combined Shape</title>
    <desc>Created with Sketch.</desc>
    <g id="Page-1" stroke="none" stroke-width="1" fill="none" fill-rule="evenodd">
        <path d="M26.8757751,0.0179737354 C26.9106924,-0.0144567384 26.9750232,-0.00376736432 27.1254293,0.0562924237 C27.2751135,0.114178102 27.4204668,0.168168499 27.5658202,0.222340073 C27.8692488,0.335303204 28.1791736,0.45062162 28.4782714,0.580887043 C28.978121,0.799022743 29.3771886,1.12966864 29.6643766,1.56349416 C29.8830834,1.89359653 29.9695195,2.2251483 29.9288277,2.57708235 L29.9288277,2.57708235 L29.9348729,2.59184818 C30.4554744,3.04270424 30.9536097,3.55144597 31.46573,4.15729795 C31.1242262,3.63306568 30.9016398,3.02956899 30.7899405,2.32986793 C30.677339,1.62436924 30.6702112,0.996594987 30.7680157,0.410491174 C30.7742413,0.37371248 30.7826323,0.337114962 30.7934593,0.290733949 L30.7934593,0.290733949 L30.809339,0.220800078 C30.8163766,0.190181363 30.8392037,0.16554145 30.8687977,0.156120307 C30.9001059,0.146880339 30.9324067,0.154942664 30.9549631,0.176502588 C30.9904217,0.210110704 31.0255195,0.241907063 31.059715,0.272978718 L31.059715,0.272978718 L31.0838954,0.294991581 C31.171324,0.373984244 31.2539706,0.448719274 31.3287676,0.533237799 C32.0554443,1.35641019 32.4794142,2.225873 32.6245871,3.19144959 C32.6907225,3.627721 32.6632037,3.99922204 32.5406774,4.32678794 C32.5000759,4.43531226 32.4367375,4.53224133 32.3753841,4.62590924 C32.3447977,4.67247143 32.3160157,4.71649715 32.2897601,4.76142876 C32.2711736,4.792591 32.2688277,4.8030992 32.2685571,4.80500155 C32.2805571,4.93001287 32.2978804,5.07359472 32.3228729,5.25304938 C32.3222413,5.24888233 32.3260308,5.25477055 32.3350533,5.26681874 L32.3350533,5.26681874 L32.3441661,5.27941046 C32.7416097,5.83408027 33.1082864,6.41882526 33.4382413,7.02404313 C33.3085871,6.57191884 33.2051886,5.99985615 33.2125871,5.33503144 C33.2212488,4.53767661 33.4042262,3.82647088 33.7716247,3.16074029 C33.7863315,3.13456038 33.8126774,3.11771103 33.8421811,3.11553692 C33.8791736,3.11553692 33.9020909,3.12858158 33.9186924,3.1509568 C33.9300608,3.1666285 33.9412488,3.18121316 33.9518954,3.19489193 C33.9755345,3.22578241 33.99773,3.25495172 34.0175796,3.28593279 C34.3102714,3.74675352 34.4674443,4.25504231 34.5715646,4.64629152 C34.762121,5.36347605 34.8495496,5.96262452 34.8470232,6.53196957 C34.8455796,7.01561845 34.7576999,7.38739126 34.5705721,7.70209367 C34.5124668,7.79992862 34.4391135,7.88562479 34.3681059,7.96860332 C34.3264217,8.0175208 34.2861811,8.06453592 34.2499105,8.11263811 C34.2243766,8.14624622 34.2121059,8.18039787 34.2113841,8.19942133 C34.2066022,8.31410563 34.2091285,8.43069228 34.2115646,8.54338365 L34.2115646,8.54338365 L34.2131886,8.62147043 C34.2135496,8.63460568 34.2167074,8.65009621 34.2215796,8.66259734 C34.4563465,9.23375415 34.6627826,9.82746735 34.8388127,10.4373958 C34.812918,10.2296777 34.7983014,10.0284819 34.7946022,9.8323591 C34.7733089,8.71867126 35.1135496,7.72401595 35.806121,6.87593188 L35.806121,6.87593188 L35.9505721,6.69919486 C35.9672638,6.67872199 35.9918954,6.66685497 36.0182413,6.66685497 L36.0182413,6.66685497 L36.0331285,6.66821379 C36.0635345,6.67328672 36.0895195,6.69475605 36.1003465,6.72428771 C36.1135195,6.75916406 36.1263315,6.79250041 36.1388729,6.82474971 C36.1630533,6.88671185 36.1858804,6.94568458 36.2050984,7.0054726 C36.3537902,7.47299684 36.4266924,7.98345974 36.4414894,8.66087617 L36.4414894,8.66087617 L36.4417601,8.67401142 C36.4528578,9.16680968 36.4681059,9.84168965 36.2666323,10.4875815 C36.068136,11.1233275 35.7182413,11.4447334 35.650121,11.5027097 L35.650121,11.5027097 C35.4584819,11.6744644 35.3382112,11.8258368 35.3133089,11.9241247 C35.3032037,11.9638022 35.2930984,12.0035703 35.2810984,12.0430666 C35.2284067,12.2178107 35.261339,12.384583 35.2961661,12.5611389 C35.3142112,12.652995 35.3328879,12.7479312 35.3392939,12.8454943 C35.3647375,13.2308553 35.3959556,13.6227387 35.4261811,14.0016679 L35.4261811,14.0016679 L35.4288879,14.0367254 L35.4288879,14.0367254 L35.452,14.325 L35.4854983,14.0406006 C35.5815295,13.3799384 35.8038063,12.7678292 36.1508005,12.2100268 L36.3071435,11.9743104 C36.6085871,11.5478225 36.9679556,11.1827532 37.3754142,10.8895201 C37.392918,10.8768378 37.4114142,10.8655143 37.4356849,10.8510202 C37.4482262,10.8436826 37.4620308,10.8354391 37.4781811,10.8252932 C37.5048879,10.809078 37.5368277,10.8081721 37.5632638,10.8210356 C37.5900608,10.8340803 37.6085571,10.8608943 37.6116247,10.8910601 C37.6170383,10.9460469 37.6235345,10.9991314 37.6299405,11.0510383 C37.6440157,11.1669003 37.6568277,11.2734317 37.6573691,11.3828619 C37.6634142,12.5172037 37.4244067,13.5801623 36.9467526,14.5418437 C36.8136699,14.8101651 36.6378202,15.0422513 36.4239856,15.2318518 C36.2117751,15.419097 35.9828729,15.5294331 35.7240157,15.5691106 C35.7187826,15.5699259 35.705339,15.5781694 35.7011886,15.5830612 C35.6891886,15.6079728 35.6746623,15.6363268 35.660136,15.6646809 C35.608527,15.7648711 35.5552037,15.8684131 35.5286774,15.9722268 C35.5065721,16.0598254 35.5065721,16.1558485 35.5065721,16.2574882 C35.5065721,16.2947198 35.5065721,16.3322232 35.5053992,16.3690925 C35.4805871,17.2477047 35.4481059,17.5536201 35.3079856,18.3388361 C35.3934293,18.1053911 35.5007074,17.8713119 35.6392037,17.6461103 C36.2000458,16.7347053 36.9126473,16.1160804 37.8177902,15.754997 C37.8750834,15.7318971 37.932918,15.7150477 37.9998653,15.6953902 L37.9998653,15.6953902 L38.0552074,15.6790957 L38.0552074,15.6790957 L38.1004668,15.6654056 C38.1261811,15.6567091 38.1592037,15.6626879 38.1819405,15.6815302 C38.2044969,15.7002819 38.2162262,15.7289983 38.2134293,15.7590735 C38.2067526,15.8217603 38.2021511,15.8824542 38.1980007,15.9413364 C38.1886172,16.0712394 38.1798653,16.1937143 38.1485571,16.3150115 C37.8565871,17.4471793 37.373339,18.3490726 36.6712939,19.0719641 C36.3711135,19.3810501 36.0547826,19.5582401 35.7043465,19.6137705 C35.6156548,19.627721 35.5078353,19.6293516 35.3246774,19.6179375 L35.3246774,19.6179375 L35.2720759,19.6147669 C35.2640458,19.614314 35.2570082,19.613861 35.2506022,19.613861 C35.2361661,19.613861 35.2350834,19.613861 35.2258804,19.6274492 L35.2258804,19.6274492 L34.979745,19.9667916 C34.9766774,19.9711398 34.9720759,19.9871738 34.9690082,19.9977726 L34.9690082,19.9977726 L34.9653089,20.0104549 C34.7108729,20.8763848 34.3951736,21.7106089 34.0229029,22.5021661 C34.1904518,22.2700799 34.3739706,22.0581042 34.5786924,21.8586296 C35.519745,20.9418799 37.1286473,20.9153376 37.3090082,20.9153376 L37.3090082,20.9153376 L37.3456398,20.9181459 C37.3898503,20.9338176 37.4136699,20.9813762 37.4000458,21.0263078 C37.3875947,21.0681594 37.3758653,21.1107358 37.3644067,21.1533121 C37.3366172,21.2547705 37.3099105,21.3517902 37.2724668,21.4456393 C37.0941811,21.8927812 36.8051886,22.3231644 36.3629029,22.8002004 C36.0588428,23.1272228 35.7161661,23.4588651 35.2704518,23.6686667 C34.782512,23.8986695 34.3413992,23.9547434 33.9038052,23.8422332 C33.8290082,23.8225756 33.7432037,23.7975733 33.6693992,23.7494712 C33.6172488,23.7157724 33.6027225,23.7167689 33.5511135,23.75545 C33.4899405,23.8011063 33.4247977,23.839425 33.3619105,23.8764754 C33.3268127,23.8970389 33.2916247,23.9178741 33.2572488,23.939887 C33.2536398,23.9432387 33.2424518,23.9616281 33.2382112,23.9684221 C32.8450082,24.612321 32.4119255,25.2107448 31.9441962,25.7566276 C32.1970984,25.5718283 32.4568578,25.4381205 32.7328578,25.3490726 C33.5759255,25.0763124 34.4596849,25.1110981 35.3350533,25.4507122 C35.4657902,25.501532 35.6089781,25.5786223 35.614933,25.5818835 C35.6384819,25.5972835 35.6522864,25.6185716 35.6564368,25.6424868 C35.6603165,25.6673079 35.6540909,25.6919478 35.6392939,25.7110619 L35.6392939,25.7110619 L35.5595345,25.8179556 L35.5537601,25.8258368 C35.4946623,25.9065506 35.427715,25.9980444 35.3527375,26.0789394 C35.0145721,26.4427405 34.5975496,26.6866937 34.1974894,26.8962236 C33.6470232,27.1829343 33.0841962,27.3373867 32.5243465,27.3555043 C32.4980909,27.3564102 32.471745,27.3569537 32.4454894,27.3569537 C31.9305721,27.3569537 31.5286172,27.1865578 31.2166172,26.8359826 C31.2150834,26.8354391 31.2015496,26.8302756 31.1909029,26.8302756 C31.0757751,26.8386097 30.9632638,26.8560025 30.878542,26.8701343 C30.8658202,26.872399 30.8494894,26.8803707 30.8395646,26.8894295 C30.3217601,27.3496161 29.7734593,27.7535476 29.2007977,28.0972382 C29.2875947,28.0714206 29.376918,28.0489548 29.4684067,28.031109 C30.0805871,27.9128918 30.7051285,27.9869927 31.3907526,28.2605682 C31.8535195,28.4457299 32.2838052,28.7177654 32.7064217,29.0921652 C32.7411586,29.1228745 32.7459405,29.1756873 32.717339,29.2122848 C32.5678353,29.4033347 32.3733089,29.5103191 32.2026022,29.5897647 C31.7865721,29.7837134 31.3168578,29.908 30.7668428,29.969781 C30.7646774,29.9699621 30.587745,29.9853621 30.3396247,29.9853621 C30.160527,29.9853621 29.9938804,29.9772998 29.8444668,29.9614469 C29.70173,29.9464093 29.5593541,29.92186 29.4213089,29.8886142 C28.7867526,29.7334371 28.356918,29.4145676 28.1068127,28.9139788 C28.1064518,28.9149753 28.0868729,28.9040141 28.0632338,28.8982165 C27.9487375,28.8696813 27.8456097,28.8495708 27.7479856,28.8365261 C27.7226323,28.8323591 27.6955646,28.8391532 27.6601059,28.8534661 C27.221339,29.0232278 26.7576699,29.1644544 26.2815496,29.2735222 C26.2482563,29.2822187 26.2037751,29.2643729 26.1850984,29.2295871 C26.1396247,29.1445251 26.0843165,29.0632677 26.0207977,28.9877174 C26.0007676,28.9638022 25.9948127,28.9320058 26.0046473,28.9027459 C26.0143917,28.8736672 26.0382112,28.8521073 26.0682563,28.845132 C26.6526473,28.7155913 27.2334293,28.5268966 27.8442563,28.2682681 C27.8516548,28.2648258 27.8698804,28.2442623 27.8755646,28.2253295 C27.9363766,28.0173396 27.9567676,27.8073568 27.9380007,27.5837859 C27.8183616,26.1564827 28.664948,24.6523609 29.9510232,24.0074655 C29.9780007,23.9936056 30.0066022,23.9815574 30.0394443,23.9680598 L30.0394443,23.9680598 L30.0702112,23.9552869 C30.0983616,23.9431481 30.13373,23.9478587 30.1581811,23.9674257 C30.1828127,23.9865397 30.1953541,24.0184267 30.1903014,24.0503136 L30.1903014,24.0503136 L30.1550232,24.2692646 C30.1238052,24.4629416 30.0932187,24.6524515 30.0638954,24.8423238 L30.0638954,24.8423238 L30.0566774,24.890426 C29.9739405,25.4308735 29.8885871,25.9882609 29.7223014,26.5238167 C29.5722563,27.0070126 29.3407375,27.3882971 29.0187225,27.6805337 C29.6990232,27.2776893 30.332948,26.7936781 30.9087676,26.2369247 C30.9206774,26.2254201 30.9351135,26.194439 30.9373691,26.1669909 L30.9373691,26.1669909 L30.9526172,25.7852534 C30.9527074,25.7732052 30.9528879,25.7371512 30.9453089,25.7194866 C30.6616398,25.0560207 30.5890082,24.3093951 30.7229932,23.4369428 C30.8521962,22.5954717 31.2100308,21.8216697 31.7866623,21.1369157 C31.8705721,21.037269 31.9482563,20.9984067 31.9962563,21.0235902 C32.0220608,21.0364537 32.0400157,21.0619995 32.0434443,21.0915311 L32.0434443,21.0915311 L32.0590533,21.2250577 C32.0708729,21.323708 32.0823315,21.4209088 32.0926172,21.5181096 C32.1103917,21.6895925 32.1298804,21.8607131 32.1494593,22.0319243 L32.1494593,22.0319243 L32.1522563,22.0566548 C32.2008879,22.4840486 32.2514142,22.9261176 32.2782112,23.3688207 C32.3092488,23.8852624 32.3000458,24.4883062 31.9960759,25.046056 C31.9944518,25.0489548 31.992918,25.0518536 31.9912939,25.0547524 C32.4138202,24.5242696 32.7996247,23.953294 33.143745,23.3482573 C33.1741511,23.2945386 33.1768578,23.2473423 33.1710834,23.1788579 C33.1467225,22.8894295 33.0125571,22.6540821 32.8713541,22.4428311 C32.598512,22.0340984 32.4333992,21.550993 32.3359556,20.8762942 C32.1996247,19.9327305 32.3373089,18.9860868 32.744948,18.0626336 C32.756136,18.037269 32.7692187,18.0127196 32.7832037,17.9863586 L32.7832037,17.9863586 L32.8150533,17.9262082 C32.8302112,17.8966765 32.8594443,17.8784683 32.8912037,17.8784683 C32.9315345,17.8804613 32.9617601,17.902293 32.9743014,17.9342705 C33.0730984,18.1843837 33.1687375,18.4257099 33.263745,18.6651338 L33.263745,18.6651338 L33.3244668,18.8181368 C33.5271135,19.3290526 33.7543014,19.9256646 33.8864819,20.5413001 C33.9795947,20.9756692 33.9851886,21.3949101 33.9036247,21.7940404 C34.2204067,21.0367254 34.4809781,20.2365624 34.6804668,19.4069582 C34.6827225,19.3977183 34.6834443,19.3738031 34.6636849,19.318635 C34.5703917,19.0623618 34.4004969,18.8299132 34.1853089,18.6642279 C33.7139706,18.3013327 33.4466323,17.7969392 33.247324,17.3514279 C32.8392338,16.4402946 32.728527,15.4723627 32.9089781,14.3920112 C32.9107826,14.3807783 32.9142112,14.3695454 32.918542,14.3568631 C32.9294593,14.3233456 32.947324,14.303688 32.9706022,14.2937234 C32.9943315,14.2835775 33.0210383,14.2846646 33.0434142,14.2956257 C33.0592037,14.3011516 33.086542,14.3111162 33.1054894,14.3389267 C33.2064518,14.4742651 33.310121,14.6125928 33.4138804,14.7507394 L33.4138804,14.7507394 L33.4312939,14.7740205 C33.692948,15.1228745 33.9635345,15.4834144 34.2235646,15.8426861 C34.5248277,16.2575788 34.7375796,16.6609668 34.8740909,17.0758594 C34.9400458,17.2762399 34.9829932,17.4691016 35.0032939,17.6564374 C35.0900007,16.9832786 35.1391736,16.2958975 35.1499105,15.6029905 C35.1524368,15.437577 35.1315044,15.3061339 35.0190834,15.1622803 C34.8998954,15.0086432 34.7886473,14.9230376 34.6352638,14.8665107 C34.004948,14.635421 33.6007375,14.1467898 33.3189631,13.7470253 C32.8637751,13.1003182 32.5967977,12.3477137 32.5027826,11.4462734 C32.4927676,11.3536926 32.4871736,11.2599341 32.4812187,11.1605591 L32.4812187,11.1605591 L32.4797751,11.1380027 C32.4769781,11.0897194 32.4740007,11.0394431 32.4703014,10.986268 C32.4678653,10.9508481 32.4867225,10.9176929 32.5182112,10.9016589 C32.5488879,10.8862589 32.5879556,10.8908789 32.6142112,10.9131635 L32.6142112,10.9131635 L32.6891886,10.9776621 C32.7172488,11.0017585 32.7414293,11.0224125 32.7662413,11.0424325 C32.8864217,11.1393615 33.0069631,11.235113 33.1277751,11.3312267 L33.1277751,11.3312267 L33.1404067,11.3411914 C33.4056699,11.5521707 33.6799556,11.7702158 33.9418804,11.9954173 C34.4500308,12.4305111 34.7772789,12.8637025 34.971715,13.3587655 C35.0039255,13.4403852 35.0319856,13.5210084 35.0561661,13.6008164 C34.9762262,12.8142415 34.8463917,12.0396242 34.6681059,11.2881069 C34.6464518,11.1960696 34.6343616,11.1690744 34.5904217,11.1545803 L34.5500571,11.1340735 L34.5500571,11.1340735 L34.5162563,11.1033076 C34.3875947,10.9564645 34.2172488,10.9330929 34.0524969,10.9297411 C33.5020308,10.916787 33.0655195,10.641128 32.7111135,10.373169 C31.8423315,9.71631598 31.244136,8.04940774 31.244136,7.99288088 C31.244136,7.96343981 31.2587526,7.93608226 31.2832939,7.91968585 C31.3082864,7.90310826 31.3399556,7.90066238 31.3667526,7.91243881 C31.546933,7.98925737 31.7279255,8.06435475 31.9081962,8.13918037 C32.3276548,8.31374328 32.7539706,8.49111442 33.1634142,8.68515373 C33.5755646,8.88091422 33.9010984,9.14262271 34.1338804,9.46484392 C33.9119255,8.83181557 33.6546022,8.21119776 33.3662413,7.61395163 C33.3335796,7.55072127 33.178121,7.48241798 32.9551736,7.48241798 C32.882542,7.48241798 32.8122563,7.49020854 32.7516247,7.50488378 C32.2275044,7.6307104 31.7078954,7.55443537 31.1327977,7.26600345 C30.544527,6.97068684 30.0564067,6.48785325 29.6407375,5.78978278 C29.6327074,5.77601341 29.6170984,5.73479591 29.608527,5.71142423 C29.5980608,5.68343256 29.6023014,5.65227032 29.6200759,5.62826452 C29.636136,5.6059799 29.6623917,5.59257288 29.6900007,5.59257288 L29.6900007,5.59257288 L29.9034744,5.60579872 C30.0307826,5.61386104 30.1543917,5.62174219 30.2780007,5.62808335 L30.2780007,5.62808335 L30.4100007,5.63478685 C30.8041059,5.65471619 31.211745,5.67518906 31.6104518,5.77057814 C32.0653691,5.88037069 32.3992939,6.0489548 32.6553541,6.29897745 C32.3522864,5.79250041 32.027745,5.31039153 31.6857902,4.85899194 C31.6767676,4.84721551 31.6325571,4.82891676 31.5999856,4.82348148 C31.5782413,4.81849915 31.5126473,4.80463919 31.4252187,4.80463919 C31.3093691,4.80463919 31.2079556,4.82819205 31.1238653,4.87466365 C30.5740308,5.14488741 29.962121,5.16382028 29.2958954,4.93408933 C28.7494894,4.74666293 28.2866323,4.39853357 27.8808879,3.86995308 C27.8678954,3.85310373 27.8559856,3.83462379 27.8451586,3.81496622 C27.8328879,3.79240983 27.8319856,3.76758874 27.8428127,3.74494176 C27.874121,3.67872199 28.0100909,3.64765034 28.0670232,3.6374139 C28.2075947,3.61277399 28.3667526,3.58469174 28.5246473,3.5632224 C28.5967375,3.55298596 28.6690082,3.54238718 28.7416398,3.5316978 L28.7416398,3.5316978 L28.7510232,3.5302484 C28.9967074,3.49383206 29.2507826,3.45614748 29.5067526,3.44319341 C29.9744819,3.41945938 30.3897902,3.51512022 30.7295796,3.72709594 C30.5011285,3.48296151 30.2676247,3.25114703 30.030512,3.03355486 C29.9555345,2.96488922 29.8707225,2.89558946 29.7555044,2.80898741 C29.7462112,2.80174038 29.7234744,2.79376864 29.6947826,2.79204747 C28.8764368,2.75997935 28.1947826,2.39690299 27.6119255,1.68225492 C27.2944217,1.293361 27.0509932,0.802736848 26.8675646,0.182390802 L26.8675646,0.182390802 L26.8612488,0.161102642 C26.8416699,0.0958793428 26.8308428,0.0600065282 26.8757751,0.0179737354 Z M11.0833107,0.0585509386 C11.2422881,-0.00467942648 11.3034611,-0.0142817455 11.3381979,0.0181487282 C11.3832205,0.0601815211 11.3723934,0.0960543356 11.3528145,0.161277635 L11.3528145,0.161277635 L11.3464987,0.182565795 C11.1630701,0.802911841 10.9196415,1.29353599 10.6021378,1.6825205 C10.0192806,2.39707798 9.3376265,2.76015434 8.5184686,2.79231305 C8.4905889,2.79394364 8.46785206,2.80200596 8.45891973,2.80889064 C8.34334078,2.89576445 8.25852875,2.96497362 8.18355131,3.03363926 C7.94643853,3.25132202 7.71293477,3.48304591 7.48439341,3.72727093 C7.82427311,3.51511403 8.23958138,3.41927202 8.70731071,3.44327782 C8.96328063,3.45623189 9.21735582,3.49391646 9.46313025,3.5303328 L9.46313025,3.5303328 C9.54496484,3.54256217 9.61732574,3.55316096 9.68959642,3.5633068 C9.84731071,3.58477614 10.0063784,3.61285839 10.1467694,3.63749831 C10.2039724,3.64782533 10.3398521,3.67889698 10.3712506,3.74502616 C10.3820776,3.76767314 10.3812656,3.79249423 10.3689047,3.81505062 C10.3580776,3.83461761 10.3461678,3.85318813 10.3329949,3.87021866 C9.92734078,4.39861797 9.46457386,4.74674733 8.91816785,4.93417373 C8.25203251,5.16390468 7.63849868,5.14397534 7.09218289,4.87574452 C7.00619792,4.82827646 6.90478439,4.80463301 6.78893477,4.80463301 C6.70159642,4.80463301 6.63591221,4.81849296 6.6178671,4.82275059 C6.58168665,4.82881998 6.53756634,4.84711874 6.52836334,4.85907635 C6.18649868,5.31047593 5.86195732,5.79240364 5.55888965,6.29888068 C5.8149498,6.04885803 6.14887462,5.88027392 6.60370168,5.77048137 C7.00249868,5.67509229 7.41013777,5.65461942 7.80424304,5.63469008 L7.80424304,5.63469008 L7.93624304,5.62798658 C8.05985206,5.62164542 8.18346108,5.61376427 8.31076935,5.60570195 L8.31076935,5.60570195 L8.5184686,5.5925667 L8.5184686,5.5925667 C8.55230319,5.5925667 8.57828815,5.60597371 8.59452875,5.62843952 C8.61203251,5.65208296 8.61627311,5.6832452 8.60571672,5.71150863 C8.59732574,5.73460855 8.58171672,5.77582605 8.57377687,5.78932365 C8.15801747,6.48766589 7.66989717,6.97049948 7.08153627,7.26581609 C6.50643853,7.5543386 5.9868295,7.6307948 5.46279943,7.50469642 C5.40207762,7.49002118 5.33179191,7.48223062 5.25925056,7.48223062 C5.03621296,7.48223062 4.88066409,7.55053391 4.84755131,7.61485133 C4.55955131,8.21119158 4.30231822,8.8317188 4.08045356,9.46465656 C4.31323552,9.14252594 4.63885958,8.88072686 5.05091973,8.68496637 C5.46036334,8.49101765 5.88667913,8.31364651 6.29900995,8.14198241 C6.48640845,8.06416739 6.66740093,7.98907001 6.84839341,7.91197969 C6.87329567,7.90083738 6.90631822,7.90310208 6.93076935,7.91931731 C6.95558138,7.9358949 6.97019792,7.96334304 6.97019792,7.99278411 C6.97019792,8.04931097 6.37200243,9.71612862 5.50322048,10.3730722 C5.14890469,10.6410312 4.71239341,10.9166903 4.16201747,10.9296443 C3.99708514,10.9329961 3.8268295,10.9563678 3.69753627,11.1039355 C3.67849868,11.1265825 3.65242349,11.1448812 3.62445356,11.154393 L3.59651042,11.1685317 C3.5733295,11.1866253 3.5624686,11.2190501 3.546228,11.2880101 C3.36794228,12.0396181 3.2381077,12.8143259 3.15816785,13.6009914 C3.1823483,13.5210928 3.21049868,13.440379 3.24261898,13.3587593 C3.43705507,12.8636963 3.76430319,12.4305049 4.27254379,11.9953206 C4.5344686,11.770119 4.80875431,11.5520739 5.07392725,11.3411852 L5.07392725,11.3411852 L5.08655883,11.3312206 C5.20737086,11.2351068 5.32791221,11.1392648 5.44800243,11.0424263 C5.47299492,11.0223158 5.49708514,11.0016617 5.52523552,10.9775653 L5.52523552,10.9775653 L5.60003251,10.9132479 C5.62655883,10.8906915 5.6656265,10.8861621 5.69612274,10.9015621 C5.72761146,10.9175961 5.7464686,10.9507513 5.74412274,10.9860806 C5.74033326,11.0393463 5.73735582,11.0896226 5.73455883,11.137906 L5.73455883,11.137906 L5.73311522,11.1604623 C5.72725056,11.2597467 5.72156634,11.3535958 5.71155131,11.4463578 C5.61753627,12.3477076 5.35055883,13.1002214 4.89537086,13.7469285 C4.61359642,14.146693 4.20929567,14.6352336 3.5790701,14.866414 C3.42568665,14.9229408 3.31443853,15.008637 3.19534078,15.1620929 C3.0828295,15.3060371 3.06189717,15.4374802 3.06442349,15.6028937 C3.07516033,16.2958913 3.12433326,16.9831818 3.21104003,17.6563406 C3.23134078,17.4690048 3.27437837,17.2761431 3.34024304,17.0757626 C3.47675431,16.66087 3.68950619,16.257482 3.99076935,15.8424988 C4.25079943,15.4833177 4.52138589,15.1227778 4.78304003,14.7739237 L4.78304003,14.7739237 L4.80045356,14.7506426 C4.90421296,14.612496 5.00788213,14.4742589 5.11001747,14.33729 C5.12779191,14.31111 5.15513025,14.3010548 5.17317537,14.2944419 C5.19113025,14.2855643 5.22018289,14.2837525 5.24328063,14.2934454 C5.26691973,14.3036818 5.28478439,14.3232488 5.29263401,14.3474358 L5.29263401,14.3474358 L5.29588213,14.3572193 C5.29994228,14.3694487 5.30337086,14.3806816 5.30526559,14.3920051 C5.48571672,15.4722659 5.37500995,16.4401978 4.96691973,17.3513311 C4.76761146,17.7968425 4.50027311,18.301236 4.02902499,18.6641312 C3.8137468,18.8298165 3.64385206,19.062265 3.55055883,19.3186288 C3.53079943,19.3737969 3.53152123,19.3977121 3.53377687,19.4069521 C3.73326559,20.2366468 3.9937468,21.0368098 4.31061898,21.7940342 C4.22896484,21.3949039 4.23464905,20.975663 4.32776183,20.5412939 C4.45985206,19.9257491 4.68713025,19.329137 4.88977687,18.8181306 L4.88977687,18.8181306 L4.95049868,18.6651276 C5.04550619,18.4257038 5.14114529,18.1844681 5.24003251,17.9340831 C5.25248364,17.9023774 5.2827092,17.8805457 5.31699492,17.8787339 C5.35137086,17.8771939 5.38394228,17.8965797 5.3991904,17.9260208 L5.3991904,17.9260208 L5.43104003,17.9863524 C5.44502499,18.0127135 5.4581077,18.0372628 5.46929567,18.062718 C5.87693477,18.9861712 6.01461898,19.9327243 5.87828815,20.8762881 C5.78075431,21.5509868 5.61564153,22.0340922 5.34288965,22.4428249 C5.20168665,22.6538947 5.06761146,22.8892421 5.04316033,23.1788517 C5.03747612,23.2473362 5.04009266,23.2945325 5.07049868,23.3483417 C5.41461898,23.9532878 5.80033326,24.5241728 6.22285958,25.0546557 L6.22285958,25.0546557 C5.91419792,24.4882094 5.90499492,23.8851657 5.93603251,23.3688145 C5.96273928,22.926202 6.01326559,22.484133 6.0619874,22.0566486 L6.0619874,22.0566486 L6.06478439,22.0319181 C6.08436334,21.8607069 6.10385206,21.6895864 6.1216265,21.518194 C6.13191221,21.4209026 6.14337086,21.3237924 6.15528063,21.2248704 L6.15528063,21.2248704 L6.1707092,21.0916155 C6.174228,21.0619933 6.19218289,21.0363569 6.2187092,21.0231311 C6.22737086,21.0186017 6.23837837,21.0161558 6.25055883,21.0161558 C6.30054379,21.0161558 6.36009266,21.0567392 6.42758138,21.1369095 C7.00421296,21.8216635 7.36204755,22.5954655 7.49125056,23.4369367 C7.62523552,24.3093889 7.55260394,25.0560145 7.26902499,25.7192992 C7.26135582,25.737145 7.26153627,25.773199 7.2616265,25.7867872 L7.2616265,25.7867872 L7.27705507,26.1687964 C7.27913025,26.1943422 7.29347612,26.2253233 7.30556634,26.2370091 C7.88129567,26.7936719 8.51522048,27.2776831 9.19552123,27.680437 C8.87350619,27.388291 8.6419874,27.0070064 8.49194228,26.5238105 C8.32565657,25.9882547 8.24030319,25.4307767 8.1577468,24.891688 L8.1577468,24.891688 L8.1503483,24.8420458 C8.12102499,24.6523547 8.09043853,24.4628448 8.05922048,24.2691678 L8.05922048,24.2691678 L8.02403251,24.0503074 C8.01888965,24.0183299 8.03143101,23.986443 8.05669416,23.966876 C8.08006259,23.9480337 8.11534078,23.9428702 8.14430319,23.9552807 L8.14430319,23.9552807 L8.17479943,23.967963 C8.20764153,23.9814606 8.23615281,23.9935088 8.26349116,24.0074594 C9.54929567,24.6522641 10.3958821,26.1562953 10.276243,27.5836891 C10.2574761,27.8072601 10.2778671,28.0172428 10.3387694,28.2256856 C10.3444536,28.2441656 10.3625889,28.264729 10.3698972,28.2681714 C10.9809047,28.5267999 11.5615964,28.7154945 12.145446,28.8449446 C12.1759423,28.8521011 12.1997618,28.873661 12.2091453,28.9021056 C12.2189799,28.9314561 12.213025,28.9631619 12.1930851,28.9869865 C12.1294761,29.0626274 12.0741678,29.1439753 12.0287844,29.2287656 C12.0132656,29.2575726 11.9838521,29.2752372 11.9519122,29.2752372 C11.9449648,29.2752372 11.9380175,29.2744219 11.9313408,29.2727914 C11.4559423,29.1639047 10.9922731,29.0226781 10.5541378,28.8531881 C10.5178671,28.8385129 10.4890851,28.8322623 10.4659874,28.8359764 C10.3680024,28.8491117 10.2649648,28.8692222 10.1504686,28.8977574 C10.1264686,28.9036456 10.1075212,28.9146973 10.1031002,28.918955 C9.85678439,29.4140179 9.42685958,29.7328874 8.79239341,29.8879739 C8.65425807,29.9213102 8.51188213,29.9458596 8.36914529,29.9608972 C8.21982198,29.9767501 8.05317537,29.9848124 7.87407762,29.9848124 C7.62595732,29.9848124 7.44902499,29.9694124 7.44740093,29.9693218 C6.89675431,29.9075409 6.42704003,29.7832543 6.01091973,29.5891244 C5.84030319,29.5097693 5.64577687,29.402785 5.49627311,29.2117351 C5.46758138,29.1751376 5.47245356,29.1223248 5.50728063,29.0916155 C5.92980695,28.7172157 6.36009266,28.4451802 6.82276935,28.2600185 C7.50857386,27.986443 8.13311522,27.912342 8.74511522,28.0304687 C8.83660394,28.0484957 8.92601747,28.0709615 9.01281446,28.096779 C8.44015281,27.7530885 7.89194228,27.3492476 7.37431822,26.8891515 C7.36412274,26.8799116 7.34779191,26.8719398 7.33452875,26.8695845 C7.25043853,26.8555434 7.13792725,26.8382411 7.01955131,26.8297259 C7.01215281,26.8298165 6.9987092,26.83498 6.99491973,26.8376976 C6.68508514,27.1861893 6.28313025,27.3565852 5.76821296,27.3565852 C5.74195732,27.3565852 5.71561146,27.3560417 5.68926559,27.3551358 C5.12950619,27.3370182 4.56667913,27.1825658 4.01630319,26.895855 C3.61606259,26.6864158 3.19913025,26.4424625 2.86105507,26.0785709 C2.7859874,25.9975853 2.71904003,25.9061821 2.65994228,25.8253776 L2.65994228,25.8253776 C2.62800243,25.781986 2.60156634,25.7461132 2.574228,25.7104216 C2.55961146,25.6915793 2.55338589,25.6669394 2.55717537,25.642843 C2.56150619,25.6182937 2.57531071,25.5969149 2.59534078,25.5836891 C2.60490469,25.5782538 2.74809266,25.5012541 2.87873928,25.4504343 C3.75401747,25.110639 4.63777687,25.0759438 5.48093477,25.348704 C5.75684454,25.437752 6.01660394,25.5714597 6.26959642,25.7562591 C5.8018671,25.2103763 5.36869416,24.6119525 4.97549116,23.9680536 C4.97134078,23.9612595 4.96015281,23.9428702 4.95491973,23.9384314 C4.92207762,23.9175961 4.88688965,23.8968515 4.85197236,23.8762881 C4.78881446,23.839147 4.72376183,23.8008283 4.6625889,23.755172 C4.61097988,23.7165816 4.59663401,23.7154945 4.54412274,23.7492838 C4.47040845,23.7972954 4.38469416,23.8222071 4.31016785,23.8418646 C3.87194228,23.954556 3.43128063,23.8983915 2.94325056,23.6682982 C2.4976265,23.4585872 2.1549498,23.1269448 1.85097988,22.7999224 C1.40860394,22.3228865 1.11961146,21.8925939 0.941325743,21.4452708 C0.903882134,21.3514217 0.877175367,21.254402 0.851461082,21.1604623 C0.838017473,21.1104578 0.826288149,21.0678815 0.813746796,21.0257581 C0.800122736,20.9810983 0.82403251,20.9336302 0.868243036,20.9178679 L0.868243036,20.9178679 L0.88240845,20.9152409 L0.938126998,20.9153053 C1.2301195,20.9193119 2.73691289,20.9832724 3.6351904,21.8583516 C3.83982198,22.0577356 4.02343101,22.2697114 4.19097988,22.5018882 C3.8187092,21.7102404 3.50300995,20.8761069 3.24857386,20.0100864 L3.24857386,20.0100864 L3.24496484,19.9979476 C3.24180695,19.9868959 3.23720544,19.9708618 3.23404755,19.966423 L3.23404755,19.966423 L2.98890469,19.6284395 C2.97888965,19.6135831 2.97771672,19.6135831 2.96328063,19.6135831 C2.95687462,19.6135831 2.94983702,19.614036 2.94180695,19.614489 L2.94180695,19.614489 L2.88911522,19.6176596 C2.70613777,19.6290736 2.59804755,19.6273525 2.5096265,19.6134925 C2.15910018,19.5579621 1.84276935,19.3807722 1.5425889,19.0716862 C0.840543788,18.348704 0.357295668,17.4469013 0.0653257432,16.314643 C0.0340174725,16.1934363 0.0252655928,16.0709615 0.0159723597,15.9412396 C0.0117317582,15.8820857 0.00713025447,15.8214824 0.000453562742,15.7591579 C-0.00252388087,15.7292639 0.00929566801,15.7005475 0.031852059,15.6817958 C0.0544986755,15.6629535 0.0861678485,15.6567029 0.113957322,15.6658523 C0.144724239,15.6752735 0.173506194,15.6837887 0.200664089,15.6917605 L0.214017473,15.6957463 C0.280964841,15.7153133 0.338709202,15.7320721 0.396273112,15.7553532 C1.30114529,16.116346 2.01365657,16.7349709 2.57449868,17.6463759 C2.71299492,17.8715775 2.82027311,18.1056567 2.90571672,18.3391017 C2.76568665,17.5539762 2.73311522,17.2479703 2.70830319,16.3692675 C2.70713025,16.3324888 2.70713025,16.2949854 2.70713025,16.2577538 C2.70713025,16.1561141 2.70713025,16.0601815 2.68502499,15.9724018 C2.65849868,15.8685881 2.60517537,15.7650461 2.55356634,15.6649464 C2.53904003,15.6365924 2.52451371,15.608329 2.51052875,15.5801562 C2.50845356,15.5785256 2.49491973,15.5702821 2.48923552,15.5692856 C2.23091973,15.5296081 2.00201747,15.419272 1.78989717,15.232208 C1.57597236,15.0425169 1.40012274,14.8104306 1.26704003,14.5421092 C0.789385894,13.5804279 0.550378375,12.5174693 0.556423488,11.3831274 C0.556964841,11.2736972 0.569867097,11.1671658 0.583491157,11.0543839 C0.590258074,10.9993064 0.596664089,10.9462219 0.602167848,10.8914162 C0.605235518,10.8611599 0.623731758,10.8344364 0.650618976,10.8213012 C0.676874615,10.8084377 0.70953627,10.8097965 0.734979879,10.8251059 C0.751852059,10.8357047 0.765746796,10.8440388 0.777746796,10.851014 C0.8024686,10.8657799 0.820964841,10.8771033 0.838558826,10.8897857 C1.24601747,11.1831999 1.60529567,11.548088 1.90664905,11.9745759 C2.39873928,12.67165 2.68475431,13.4598554 2.76180695,14.3269629 L2.761,14.324 L2.7733671,14.181977 L2.7733671,14.181977 L2.78499492,14.036991 L2.78770168,14.0019335 C2.81792725,13.6230042 2.84914529,13.2311209 2.8745889,12.8457599 C2.88099492,12.749465 2.89940093,12.6556159 2.91708514,12.5647562 C2.95263401,12.384758 2.98556634,12.2180763 2.93287462,12.043151 C2.92096484,12.0038358 2.91076935,11.9640677 2.90075431,11.9243902 C2.87585206,11.8261023 2.75558138,11.6747299 2.57088965,11.5092258 L2.57088965,11.5092258 C2.49582198,11.444999 2.14592725,11.1236836 1.94752123,10.4878471 C1.74595732,9.84195523 1.76120544,9.16698467 1.77230319,8.674277 L1.77230319,8.674277 L1.77257386,8.66105117 C1.78737086,7.98381591 1.86027311,7.47326242 2.00887462,7.00591936 C2.02818289,6.94604075 2.05100995,6.8871586 2.0751904,6.82501529 C2.08773176,6.79285658 2.10063401,6.75961082 2.11380695,6.72437212 C2.12454379,6.69511222 2.15052875,6.67364289 2.18138589,6.66847937 L2.18138589,6.66847937 L2.19582198,6.66721114 C2.22216785,6.66721114 2.24688965,6.67898757 2.26358138,6.69973221 L2.26358138,6.69973221 L2.40794228,6.87628805 C3.10051371,7.72446271 3.44075431,8.71902743 3.41946108,9.83271527 C3.41576183,10.0289287 3.40114529,10.2300339 3.37525056,10.437752 C3.55137086,9.82773293 3.75789717,9.23374797 3.99284454,8.66222881 C3.99744604,8.65045238 4.00051371,8.63505243 4.00078439,8.62164542 L4.00078439,8.62164542 L4.00249868,8.54373981 C4.00493477,8.43104845 4.00746108,8.3144618 4.00267913,8.1997775 C4.00195732,8.18075404 3.98968665,8.14660239 3.96424304,8.11308486 C3.92788213,8.06489209 3.88773176,8.01787696 3.84866409,7.97213007 C3.77504003,7.88589037 3.70177687,7.8001942 3.64358138,7.70226867 C3.45645356,7.38765684 3.36866409,7.01588403 3.36722048,6.53223515 C3.36469416,5.96325245 3.45221296,5.36410398 3.64267913,4.6465571 C3.74688965,4.25530789 3.90388213,3.74720027 4.19657386,3.28637955 C4.21642349,3.2552173 4.23861898,3.22604799 4.2623483,3.1952481 C4.27299492,3.18147874 4.28418289,3.16698467 4.2951904,3.15158473 C4.31206259,3.12884716 4.3378671,3.11553074 4.36466409,3.11553074 C4.40156634,3.1180672 4.42791221,3.13491655 4.44243853,3.1608247 C4.81001747,3.82673646 4.99290469,4.53794219 5.0017468,5.33538761 C5.00905507,6.00021232 4.9057468,6.5723656 4.77600243,7.02439929 C5.10595732,6.41918143 5.47263401,5.83443644 5.87007762,5.27976663 L5.87007762,5.27976663 L5.8784686,5.26808079 C5.88884454,5.25431142 5.89209266,5.2492385 5.89308514,5.24706439 C5.91636334,5.07440382 5.93359642,4.93055021 5.94559642,4.80146243 C5.94568665,4.80300243 5.94406259,4.79457775 5.92457386,4.76205669 C5.89813777,4.71676273 5.86926559,4.67264642 5.84039341,4.62871128 C5.77732574,4.53250691 5.7139874,4.43557784 5.67338589,4.32705352 C5.55076935,3.99948762 5.52334078,3.62798658 5.58947612,3.19162459 C5.73464905,2.22613858 6.15852875,1.35667577 6.88529567,0.53350338 C6.96009266,0.448984855 7.04273928,0.374249824 7.13025807,0.295075986 L7.13025807,0.295075986 L7.1543483,0.273244298 C7.18854379,0.242263231 7.22355131,0.210376285 7.25928063,0.176586993 C7.28156634,0.155298832 7.31504003,0.147417684 7.34490469,0.156295299 C7.37476935,0.165716443 7.39750619,0.190265768 7.40472424,0.22061272 L7.40472424,0.22061272 L7.42069416,0.291361882 C7.43143101,0.337289955 7.43982198,0.373978061 7.44604755,0.410666166 C7.54385206,0.99676998 7.53672424,1.62463482 7.42412274,2.33004292 C7.31242349,3.02974398 7.08983702,3.63333126 6.74833326,4.15756353 C7.26045356,3.55153038 7.75922048,3.0423357 8.28099492,2.59003024 C8.28153627,2.58894318 8.28496484,2.57961263 8.28523552,2.57571735 C8.24454379,2.22532329 8.33097988,1.89368093 8.54968665,1.56357857 C8.83687462,1.12975304 9.23603251,0.799107148 9.73588213,0.580971448 C10.0349799,0.450706025 10.3449047,0.335387609 10.6445438,0.223873885 C10.7936866,0.168343492 10.9389498,0.114262507 11.0833107,0.0585509386 Z M18.9988295,7.29245512 C19.1705288,7.29245512 19.3273408,7.39029007 19.4033107,7.54492364 L19.4033107,7.54492364 L21.6440626,12.1026734 L26.6536566,12.8330838 C26.8236415,12.8578143 26.9647543,12.9773903 27.0178069,13.1414451 C27.0709498,13.3053186 27.0265588,13.4854074 26.9036716,13.6057081 L26.9036716,13.6057081 L23.2784084,17.1536744 L24.1340175,22.1630956 C24.1631603,22.3329479 24.0935062,22.5047932 23.9545588,22.6059799 C23.8759724,22.663322 23.7829498,22.6925314 23.6893859,22.6925314 C23.6176566,22.6925314 23.5455663,22.6753702 23.4796115,22.6404939 L23.4796115,22.6404939 L18.99901,20.2756964 L14.5184084,22.6404939 C14.3661979,22.7207548 14.1821378,22.7073478 14.0433709,22.6059799 C13.9044235,22.5047026 13.8348596,22.3329479 13.8639122,22.1630956 L13.8639122,22.1630956 L14.7192506,17.1536744 L11.0939874,13.6057081 C10.97101,13.4854074 10.9267092,13.3053186 10.9798521,13.1414451 C11.0329047,12.9774809 11.1741077,12.8578143 11.3440024,12.8330838 L11.3440024,12.8330838 L16.3544084,12.1026734 L18.5943483,7.54492364 C18.670228,7.39047124 18.8271303,7.29245512 18.9988295,7.29245512 Z" id="Combined-Shape" fill="#F8F8F8" fill-rule="nonzero"></path>
    </g>
</svg>