<?xml version="1.0" encoding="UTF-8"?>
<svg width="32px" height="32px" viewBox="0 0 32 32" version="1.1" xmlns="http://www.w3.org/2000/svg" xmlns:xlink="http://www.w3.org/1999/xlink">
    <!-- Generator: Sketch 59.1 (86144) - https://sketch.com -->
    <title>Group 4</title>
    <desc>Created with Sketch.</desc>
    <defs>
        <linearGradient x1="53.8571893%" y1="79.296875%" x2="53.8571893%" y2="0%" id="linearGradient-1">
            <stop stop-color="#F0CA4C" offset="0%"></stop>
            <stop stop-color="#F2F27C" offset="100%"></stop>
        </linearGradient>
        <rect id="path-2" x="4.36272401" y="9.17863193" width="22.6861649" height="13.978344"></rect>
        <linearGradient x1="53.8571893%" y1="79.296875%" x2="53.8571893%" y2="0%" id="linearGradient-4">
            <stop stop-color="#F0CA4C" offset="0%"></stop>
            <stop stop-color="#F2F27C" offset="100%"></stop>
        </linearGradient>
    </defs>
    <g id="Page-1" stroke="none" stroke-width="1" fill="none" fill-rule="evenodd">
        <g id="Group-4">
            <path d="M15.7058065,-1.86517468e-13 C24.3663576,-1.86517468e-13 31.4116129,7.04525527 31.4116129,15.7058065 C31.4116129,24.3663576 24.3663576,31.4116129 15.7058065,31.4116129 C7.04525527,31.4116129 2.68229883e-13,24.3663576 2.68229883e-13,15.7058065 C2.68229883e-13,7.04525527 7.04525527,-1.86517468e-13 15.7058065,-1.86517468e-13 Z M15.7058065,1.72434385 C7.99769781,1.72434385 1.72434385,7.99769781 1.72434385,15.7058065 C1.72434385,23.4139151 7.99769781,29.6872691 15.7058065,29.6872691 C23.415764,29.6872691 29.6872691,23.4139151 29.6872691,15.7058065 C29.6872691,7.99769781 23.415764,1.72434385 15.7058065,1.72434385 Z" id="ico-status" fill="url(#linearGradient-1)"></path>
            <mask id="mask-3" fill="white">
                <use xlink:href="#path-2"></use>
            </mask>
            <g id="Mask"></g>
            <path d="M15.682387,3.6620441 C17.9074185,3.6620441 19.7109916,5.4654338 19.7109916,7.69032786 L19.7109916,7.69032786 L19.7109916,9.16744926 L25.7829092,9.16744926 C26.4565737,9.16744926 27.0034249,9.71434624 27.0034249,10.3879649 L27.0034249,10.3879649 L27.0034249,21.9079078 C27.0034249,22.5814807 26.4565737,23.1284235 25.7829092,23.1284235 L25.7829092,23.1284235 L5.58333135,23.1284235 C4.90966683,23.1284235 4.36272401,22.5814807 4.36272401,21.9079078 L4.36272401,21.9079078 L4.36272401,10.3879649 C4.36272401,9.71434624 4.90966683,9.16744926 5.58333135,9.16744926 L5.58333135,9.16744926 L11.6547449,9.16744926 L11.6547449,7.69032786 C11.6547449,5.46547963 13.4583179,3.6620441 15.682387,3.6620441 Z M13.751634,10.8965475 L7.67352917,10.8965475 C6.79271017,10.8965475 6.07564404,11.6136136 6.07564404,12.4941118 L6.07564404,12.4941118 L6.07564404,19.8017609 C6.07564404,20.6823049 6.79271017,21.3993711 7.67352917,21.3993711 L7.67352917,21.3993711 L13.7516798,21.3993711 C14.6321321,21.3993711 15.3491983,20.6823049 15.3491983,19.8017609 L15.3491983,19.8017609 L15.3491983,12.4941118 C15.3491983,11.6136136 14.6320863,10.8965475 13.751634,10.8965475 L13.751634,10.8965475 Z M24.928122,20.1103844 L21.4459561,20.1103844 C21.133162,20.1103844 20.8798103,20.3640112 20.8798103,20.6764844 C20.8798103,20.9890035 21.1332079,21.2424928 21.4459561,21.2424928 L21.4459561,21.2424928 L24.928122,21.2424928 C25.2404578,21.2424928 25.4940846,20.9889577 25.4940846,20.6764844 C25.4940846,20.3639653 25.2405036,20.1103844 24.928122,20.1103844 L24.928122,20.1103844 Z M13.751634,11.6511489 C14.2164024,11.6511489 14.5945052,12.0293433 14.5945052,12.4941118 L14.5945052,12.4941118 L14.5945052,19.8017609 C14.5945052,20.266896 14.2164024,20.6447238 13.751634,20.6447238 L13.751634,20.6447238 L7.67352917,20.6447238 C7.2084857,20.6447238 6.83029129,20.266896 6.83029129,19.8017609 L6.83029129,19.8017609 L6.83029129,12.4941118 C6.83029129,12.0293433 7.2084857,11.6511489 7.67352917,11.6511489 L7.67352917,11.6511489 Z M12.4897791,17.707805 C11.9944874,18.1654239 11.379761,18.4419201 10.712192,18.4419201 C10.0436147,18.4419201 9.42888836,18.165378 8.93588821,17.707805 C8.91980165,17.72105 8.90706074,17.7367241 8.89253243,17.7476318 C8.34393971,18.1786689 7.95043787,18.7985283 7.82092049,19.525998 C7.80478811,19.6165593 7.82880336,19.7103746 7.888704,19.7810913 C7.94755054,19.851808 8.03527038,19.8928722 8.12748162,19.8928722 L8.12748162,19.8928722 L13.2973607,19.8928722 C13.3896636,19.8928722 13.4765126,19.8523579 13.5361841,19.7810913 C13.5952598,19.7103746 13.6195959,19.6172926 13.6032802,19.525998 C13.4721129,18.7985283 13.0793444,18.1786231 12.5331807,17.7476318 C12.5170483,17.7367241 12.5030699,17.72105 12.4897791,17.707805 Z M24.9280762,17.0917037 L17.6723074,17.0917037 C17.3596966,17.0917037 17.1063449,17.3452388 17.1063449,17.6576204 C17.1063449,17.9700479 17.3597424,18.2237204 17.6723074,18.2237204 L17.6723074,18.2237204 L24.928122,18.2237204 C25.2404578,18.2237204 25.4940387,17.9700479 25.4940387,17.6576204 C25.4940387,17.345193 25.2404578,17.0917037 24.9280762,17.0917037 L24.9280762,17.0917037 Z M10.7121462,12.3321922 C9.63686779,12.3321922 8.76338169,13.4803871 8.76333586,14.8962788 C8.76333586,16.3118496 9.63686779,17.4616486 10.7121462,17.4616486 C11.7871954,17.4616486 12.6606357,16.3118496 12.6606357,14.8962788 C12.6606357,13.4804329 11.7871954,12.3321922 10.7121462,12.3321922 Z M23.543991,14.0728397 L17.6723074,14.0728397 C17.3596966,14.0728397 17.1063449,14.3265581 17.1063449,14.6390314 C17.1063449,14.9514589 17.3597424,15.2049481 17.6723074,15.2049481 L17.6723074,15.2049481 L23.543991,15.2049481 C23.8564643,15.2049481 24.110091,14.951413 24.110091,14.6390314 C24.110091,14.3265123 23.8564643,14.0728397 23.543991,14.0728397 L23.543991,14.0728397 Z M21.1547024,11.0542049 L17.6723532,11.0542049 C17.3597424,11.0542049 17.1063907,11.30774 17.1063907,11.6201216 C17.1063907,11.9325949 17.3597883,12.1862216 17.6723532,12.1862216 L17.6723532,12.1862216 L21.1547024,12.1862216 C21.4670841,12.1862216 21.720665,11.932549 21.720665,11.6201216 C21.720665,11.3076941 21.4670382,11.0542049 21.1547024,11.0542049 L21.1547024,11.0542049 Z M15.6823412,5.42125306 C14.7935935,5.42125306 14.0727234,6.14198565 14.0727234,7.03160412 C14.0727234,7.92044348 14.7935476,8.6412219 15.6823412,8.6412219 C16.5719138,8.6412219 17.2926922,7.92048931 17.2926922,7.03160412 C17.2926922,6.14203148 16.5719138,5.42125306 15.6823412,5.42125306 Z" id="Combined-Shape" fill="url(#linearGradient-4)" fill-rule="nonzero" mask="url(#mask-3)"></path>
        </g>
    </g>
</svg>