<?xml version="1.0" encoding="UTF-8"?>
<svg width="32px" height="32px" viewBox="0 0 32 32" version="1.1" xmlns="http://www.w3.org/2000/svg" xmlns:xlink="http://www.w3.org/1999/xlink">
    <!-- Generator: Sketch 59.1 (86144) - https://sketch.com -->
    <title>Group 72</title>
    <desc>Created with Sketch.</desc>
    <defs>
        <linearGradient x1="53.8571893%" y1="79.296875%" x2="53.8571893%" y2="0%" id="linearGradient-1">
            <stop stop-color="#F0CA4C" offset="0%"></stop>
            <stop stop-color="#F2F27C" offset="100%"></stop>
        </linearGradient>
        <linearGradient x1="53.8571893%" y1="79.296875%" x2="53.8571893%" y2="0%" id="linearGradient-2">
            <stop stop-color="#F0CA4C" offset="0%"></stop>
            <stop stop-color="#F2F27C" offset="100%"></stop>
        </linearGradient>
    </defs>
    <g id="Page-1" stroke="none" stroke-width="1" fill="none" fill-rule="evenodd" opacity="0.9">
        <g id="Group-72">
            <path d="M15.9809484,6.85714286 C21.4912014,6.85714286 25.9875483,10.3099763 26.2367161,14.6438223 C26.2439178,14.7695757 26.2641073,15.1712111 26.24638,15.441738 C26.2356697,15.6056545 26.212341,15.814628 26.1651911,16.0629956 C26.0388222,16.8539558 25.7701419,17.6094612 25.3803863,18.3130156 C25.1967728,18.6444187 24.2961862,19.9062002 24.0199964,20.2388959 C22.5022147,22.0672141 19.9605551,24.1775696 15.7100522,26.2288955 C15.3134642,26.4203263 14.8609242,26.101911 14.9095513,25.6642669 L14.9095513,25.6642669 L15.1237569,23.7362939 C15.1578574,23.4289581 14.9360808,23.1512911 14.6284989,23.1190987 C9.59756147,22.5924485 5.71428571,19.1686068 5.71428571,15.023237 C5.71428571,10.5132253 10.3107798,6.85714286 15.9809484,6.85714286 Z M9.81041285,12.7125869 C9.52037361,12.7125869 9.28523993,12.9477206 9.28523993,13.2377599 L9.28523993,13.2377599 L9.28523993,17.2026553 L9.29370136,17.2970543 C9.33816971,17.5420436 9.55260019,17.7278282 9.81041285,17.7278282 L9.81041285,17.7278282 L11.9110429,17.7278282 L12.0054419,17.7193668 C12.2198076,17.680457 12.3888446,17.5114199 12.4277544,17.2970543 L12.4277544,17.2970543 L12.4362159,17.2026553 L12.4277544,17.1082563 C12.3832861,16.863267 12.1688556,16.6774824 11.9110429,16.6774824 L11.9110429,16.6774824 L10.3355858,16.6774824 L10.3355858,13.2377599 L10.3271243,13.1433609 C10.2882145,12.9289952 10.1191775,12.7599582 9.90481183,12.7210484 L9.90481183,12.7210484 Z M13.5750138,12.7125869 L13.3454199,12.7125869 C13.1187806,12.7125869 12.935044,12.8963236 12.935044,13.1229629 L12.935044,13.1229629 L12.935044,17.3174523 C12.935044,17.5440916 13.1187806,17.7278282 13.3454199,17.7278282 L13.3454199,17.7278282 L13.5750138,17.7278282 C13.8016531,17.7278282 13.9853898,17.5440916 13.9853898,17.3174523 L13.9853898,17.3174523 L13.9853898,13.1229629 C13.9853898,12.8963236 13.8016531,12.7125869 13.5750138,12.7125869 L13.5750138,12.7125869 Z M18.3441034,12.7125695 C18.0540641,12.7126485 17.8189305,12.9477206 17.8189305,13.2377599 L17.8189305,13.2377599 L17.8189305,15.6599445 L17.8091298,15.6471614 C17.6544504,15.4454148 15.7203439,12.9228925 15.6896165,12.8883832 C15.5894077,12.7759253 15.4417413,12.7067394 15.2778248,12.7129563 C14.9921559,12.7237896 14.7730876,12.9734499 14.7730876,13.2593035 L14.7730876,13.2593035 L14.7730876,17.2025938 L14.781549,17.2969934 C14.8204588,17.5113622 14.9894959,17.6804118 15.2038615,17.7193247 L15.2038615,17.7193247 L15.2982605,17.7277869 L15.3926595,17.7193247 C15.6376488,17.6748529 15.8234334,17.4604064 15.8234334,17.2025938 L15.8234334,17.2025938 L15.8234334,14.7951204 L15.833383,14.8080143 C15.990412,15.0115076 17.953875,17.5557424 17.9838934,17.5842243 C18.0767773,17.6721225 18.2015459,17.7265356 18.3392407,17.7277869 C18.6308803,17.7304135 18.8692763,17.4724435 18.8692763,17.1808039 L18.8692763,17.1808039 L18.8692763,13.2377599 L18.8608149,13.1433603 C18.8219051,12.928992 18.652868,12.759944 18.4385024,12.7210316 L18.4385024,12.7210316 Z M20.1820855,12.7125869 L20.1820855,12.7125869 L20.0876865,12.7210484 C19.8426972,12.7655167 19.6569126,12.9799472 19.6569126,13.2377599 L19.6569126,13.2377599 L19.6569126,17.2026553 L19.665374,17.2970543 C19.7098423,17.5420436 19.9242728,17.7278282 20.1820855,17.7278282 L20.1820855,17.7278282 L22.2827156,17.7278282 L22.3771145,17.7193668 C22.5914802,17.680457 22.7605172,17.5114199 22.7994271,17.2970543 L22.7994271,17.2970543 L22.8078885,17.2026553 L22.7994271,17.1082563 C22.7549587,16.863267 22.5405282,16.6774824 22.2827156,16.6774824 L22.2827156,16.6774824 L20.7072584,16.6774824 L20.7072584,15.7453189 L22.2827156,15.7453189 L22.3771145,15.7368575 C22.5914802,15.6979477 22.7605172,15.5289106 22.7994271,15.314545 L22.7994271,15.314545 L22.8078885,15.220146 L22.7994271,15.1257471 C22.7549587,14.8807578 22.5405282,14.6949731 22.2827156,14.6949731 L22.2827156,14.6949731 L20.7072584,14.6949731 L20.7072584,13.7628097 L22.2827156,13.7628097 L22.3771145,13.7543849 C22.5914802,13.7155507 22.7605172,13.5465231 22.7994271,13.3321587 L22.7994271,13.3321587 L22.8078885,13.2377599 L22.7994271,13.1433609 C22.7549587,12.8983716 22.5405282,12.7125869 22.2827156,12.7125869 L22.2827156,12.7125869 Z" id="Combined-Shape" fill="url(#linearGradient-1)" fill-rule="nonzero"></path>
            <path d="M15.7058065,-2.20268248e-13 C24.3663576,-2.20268248e-13 31.4116129,7.04525527 31.4116129,15.7058065 C31.4116129,24.3663576 24.3663576,31.4116129 15.7058065,31.4116129 C7.04525527,31.4116129 -2.20268248e-13,24.3663576 -2.20268248e-13,15.7058065 C-2.20268248e-13,7.04525527 7.04525527,-2.20268248e-13 15.7058065,-2.20268248e-13 Z M15.7058065,1.72434385 C7.99769781,1.72434385 1.72434385,7.99769781 1.72434385,15.7058065 C1.72434385,23.4139151 7.99769781,29.6872691 15.7058065,29.6872691 C23.415764,29.6872691 29.6872691,23.4139151 29.6872691,15.7058065 C29.6872691,7.99769781 23.415764,1.72434385 15.7058065,1.72434385 Z" id="ico-status" fill="url(#linearGradient-2)"></path>
        </g>
    </g>
</svg>