<?xml version="1.0" encoding="UTF-8"?>
<svg width="21px" height="14px" viewBox="0 0 21 14" version="1.1" xmlns="http://www.w3.org/2000/svg" xmlns:xlink="http://www.w3.org/1999/xlink">
    <!-- Generator: Sketch 59.1 (86144) - https://sketch.com -->
    <title>Combined Shape</title>
    <desc>Created with Sketch.</desc>
    <defs>
        <linearGradient x1="53.8571893%" y1="79.296875%" x2="53.8571893%" y2="0%" id="linearGradient-1">
            <stop stop-color="#F0CA4C" offset="0%"></stop>
            <stop stop-color="#F2F27C" offset="100%"></stop>
        </linearGradient>
    </defs>
    <g id="Page-1" stroke="none" stroke-width="1" fill="none" fill-rule="evenodd">
        <path d="M10.5,0 C14.868065,0 18.7019804,2.43284239 20.7576801,6.07291848 C21.0807733,6.64499618 21.0807733,7.35500382 20.7576801,7.92708152 C20.1266053,9.0445501 19.3277745,10.0484611 18.3971584,10.9031566 L20.6102264,12.2857895 L19.6828677,13.7698737 L16.9326346,12.0517603 C15.0776454,13.2853387 12.8676129,14 10.5,14 C6.13193398,14 2.29801858,11.5671576 0.242318927,7.92711957 C-0.0807729756,7.35502787 -0.0807729756,6.64501018 0.242318927,6.07291848 C0.873393686,4.9554499 1.67222457,3.95153891 2.60284066,3.09684339 L0.38977355,1.71421045 L1.31713226,0.230126285 L4.06736454,1.94823966 C5.92235379,0.714661323 8.13238653,0 10.5,0 Z M5.46654177,4.88657329 C5.16715388,5.52838761 5,6.24451215 5,7 C5,9.76371324 7.23669118,12 10,12 C11.5699545,12 12.9696936,11.2782569 13.8860014,10.1482289 L13.0290354,9.61257316 C12.2955331,10.4622414 11.2105717,11 10,11 C7.79084615,11 6,9.20915385 6,7 C6,6.43988357 6.11526374,5.90674265 6.32317874,5.42282604 Z M10,2 C8.62360468,2 7.37804056,2.55474691 6.4743705,3.45301438 L9.72407892,5.48294133 C9.7506849,5.36544918 9.76473077,5.24319141 9.76473077,5.11765385 C9.76473077,4.208 9.02730769,3.47057692 8.11765385,3.47057692 L8.11642308,3.47061538 C8.67773077,3.17042308 9.31892308,3 10,3 C12.2091538,3 14,4.79084615 14,7 C14,7.3687351 13.9501075,7.72581625 13.856705,8.06486097 L14.7343517,8.61371485 C14.9065878,8.1075407 15,7.56476924 15,7 C15,4.23625 12.7633088,2 10,2 Z M8.11765385,6.76469231 C8.22262755,6.76469231 8.32530764,6.75487199 8.42482554,6.7361 L6.52811485,5.55076439 C6.71827447,6.25029508 7.35789033,6.76469231 8.11765385,6.76469231 Z" id="Combined-Shape" fill="url(#linearGradient-1)" fill-rule="nonzero"></path>
    </g>
</svg>