<?xml version="1.0" encoding="UTF-8"?>
<svg width="32px" height="32px" viewBox="0 0 32 32" version="1.1" xmlns="http://www.w3.org/2000/svg" xmlns:xlink="http://www.w3.org/1999/xlink">
    <!-- Generator: Sketch 59.1 (86144) - https://sketch.com -->
    <title>Combined Shape</title>
    <desc>Created with Sketch.</desc>
    <defs>
        <linearGradient x1="53.8571893%" y1="79.296875%" x2="53.8571893%" y2="0%" id="linearGradient-1">
            <stop stop-color="#F0CA4C" offset="0%"></stop>
            <stop stop-color="#F2F27C" offset="100%"></stop>
        </linearGradient>
    </defs>
    <g id="Page-1" stroke="none" stroke-width="1" fill="none" fill-rule="evenodd">
        <path d="M16,1.45661261e-13 C24.8227764,1.45661261e-13 32,7.17722357 32,16 C32,24.8227764 24.8227764,32 16,32 C7.17722357,32 1.45661261e-13,24.8227764 1.45661261e-13,16 C1.45661261e-13,7.17722357 7.17722357,1.45661261e-13 16,1.45661261e-13 Z M16,1.75664342 C8.1475068,1.75664342 1.75664342,8.1475068 1.75664342,16 C1.75664342,23.8524932 8.1475068,30.2433566 16,30.2433566 C23.8543767,30.2433566 30.2433566,23.8524932 30.2433566,16 C30.2433566,8.1475068 23.8543767,1.75664342 16,1.75664342 Z M20.6957162,4.70596646 C20.8272725,4.70832157 22.7348387,4.77661957 22.7348387,6.7572616 L22.7348387,6.7572616 L22.7348387,25.2363318 C22.7348387,27.2941176 20.6885847,27.2941176 20.6885847,27.2941176 L11.4572714,27.2940333 C11.3253032,27.2916708 9.41176471,27.2231595 9.41176471,25.2363318 L9.41176471,25.2363318 L9.41176471,6.7572616 C9.41176471,4.70588235 11.4644253,4.70588235 11.4644253,4.70588235 Z M16.0733017,24.3855412 C15.5082434,24.3855412 15.0469714,24.8468132 15.0469714,25.4118715 C15.0469714,25.9769297 15.5082434,26.4382018 16.0733017,26.4382018 C16.6396412,26.4382018 17.099632,25.9769297 17.099632,25.4118715 C17.099632,24.8468132 16.6396412,24.3855412 16.0733017,24.3855412 Z M21.7149149,7.26850477 L10.438095,7.26850477 L10.438095,23.6705695 L21.7149149,23.6705695 L21.7149149,7.26850477 Z M18.4104133,5.73221263 L13.73619,5.73221263 C13.6106215,5.73221263 13.5106793,5.83215491 13.5106793,5.95644209 L13.5106793,5.95644209 L13.5106793,6.01666372 C13.5106793,6.14223222 13.6157468,6.24217449 13.73619,6.24217449 L13.73619,6.24217449 L18.4104133,6.24217449 C18.5359818,6.24217449 18.6359241,6.14735746 18.6359241,6.01666372 L18.6359241,6.01666372 L18.6359241,5.95644209 C18.6359241,5.83215491 18.5359818,5.73221263 18.4104133,5.73221263 L18.4104133,5.73221263 Z" id="Combined-Shape" fill="url(#linearGradient-1)"></path>
    </g>
</svg>