<?xml version="1.0" encoding="UTF-8"?>
<svg width="32px" height="33px" viewBox="0 0 32 33" version="1.1" xmlns="http://www.w3.org/2000/svg" xmlns:xlink="http://www.w3.org/1999/xlink">
    <!-- Generator: Sketch 59.1 (86144) - https://sketch.com -->
    <title>ico-status</title>
    <desc>Created with Sketch.</desc>
    <defs>
        <linearGradient x1="53.8571893%" y1="79.296875%" x2="53.8571893%" y2="0%" id="linearGradient-1">
            <stop stop-color="#F0CA4C" offset="0%"></stop>
            <stop stop-color="#F2F27C" offset="100%"></stop>
        </linearGradient>
    </defs>
    <g id="Page-1" stroke="none" stroke-width="1" fill="none" fill-rule="evenodd">
        <path d="M16,0.5 C24.8227764,0.5 32,7.67722357 32,16.5 C32,25.3227764 24.8227764,32.5 16,32.5 C7.17722357,32.5 0,25.3227764 0,16.5 C0,7.67722357 7.17722357,0.5 16,0.5 Z M16,2.25664342 C8.1475068,2.25664342 1.75664342,8.6475068 1.75664342,16.5 C1.75664342,24.3524932 8.1475068,30.7433566 16,30.7433566 C23.8543767,30.7433566 30.2433566,24.3524932 30.2433566,16.5 C30.2433566,8.6475068 23.8543767,2.25664342 16,2.25664342 Z M16,6.9 C19.1621429,6.9 20.0442857,9.40166667 19.9628571,10.3516667 C19.895,11.1207143 19.8588095,11.4554762 19.822619,11.8309524 C19.7864286,12.2064286 20.0895238,12.2652381 19.9085714,13.052381 C19.5647619,14.5542857 19.4380952,13.93 19.2797619,14.8664286 C18.872619,17.2459524 18.2347619,16.517619 18.2347619,17.7707143 C18.2347619,19.702381 18.0583333,19.1911905 20.917381,20.2407143 C23.8216667,21.3083333 24.5047619,22.7869728 24.5861905,23.280068 C24.669127,23.8003061 24.6829497,24.1419255 24.6852535,24.2413476 L24.6857143,24.2714286 L7.31428571,24.2714286 C7.31428571,24.2714286 7.31428571,23.0771429 7.41833333,22.457381 C7.4952381,21.9642857 8.18285714,21.3083333 11.0871429,20.2452381 C13.9461905,19.2002381 13.7697619,19.7114286 13.7697619,17.7752381 C13.7697619,16.5221429 13.1319048,17.2504762 12.7247619,14.8709524 C12.5664286,13.93 12.4397619,14.5542857 12.0959524,13.0569048 C11.915,12.2697619 12.2180952,12.2109524 12.1819048,11.8354762 C12.1457143,11.46 12.1095238,11.1207143 12.0416667,10.3561905 C11.9557143,9.40166667 12.8378571,6.9 16,6.9 Z" id="ico-status" fill="url(#linearGradient-1)"></path>
    </g>
</svg>