<?xml version="1.0" encoding="UTF-8"?>
<svg width="32px" height="32px" viewBox="0 0 32 32" version="1.1" xmlns="http://www.w3.org/2000/svg" xmlns:xlink="http://www.w3.org/1999/xlink">
    <!-- Generator: Sketch 59.1 (86144) - https://sketch.com -->
    <title>Combined Shape</title>
    <desc>Created with Sketch.</desc>
    <defs>
        <linearGradient x1="53.8571893%" y1="79.296875%" x2="53.8571893%" y2="0%" id="linearGradient-1">
            <stop stop-color="#F0CA4C" offset="0%"></stop>
            <stop stop-color="#F2F27C" offset="100%"></stop>
        </linearGradient>
    </defs>
    <g id="Page-1" stroke="none" stroke-width="1" fill="none" fill-rule="evenodd">
        <path d="M16,0 C24.8227764,0 32,7.17722357 32,16 C32,24.8227764 24.8227764,32 16,32 C7.17722357,32 0,24.8227764 0,16 C0,7.17722357 7.17722357,0 16,0 Z M16,1.75664342 C8.1475068,1.75664342 1.75664342,8.1475068 1.75664342,16 C1.75664342,23.8524932 8.1475068,30.2433566 16,30.2433566 C23.8543767,30.2433566 30.2433566,23.8524932 30.2433566,16 C30.2433566,8.1475068 23.8543767,1.75664342 16,1.75664342 Z M15.9223128,6 C18.3377574,6.0058304 20.3937734,7.75970217 20.7802515,10.1440346 C21.1667296,12.528367 19.7700014,14.8418965 17.4800731,15.610424 L17.4800731,26.4358861 L15.9223128,28 L12.8923794,24.976794 L14.3645525,23.5046208 L12.8923794,22.0335689 L14.3645525,20.5613958 L12.8923794,19.0881014 L14.3641788,17.6159282 L14.3641788,15.610424 C12.0741848,14.841873 10.6774534,12.5282375 11.0640329,10.1438509 C11.4506125,7.75946439 13.5067981,6.00564886 15.9223128,6 Z M15.9223128,8.21666888 C15.5267826,8.21656976 15.1474237,8.37364962 14.8677416,8.65333175 C14.5880595,8.93301388 14.4309796,9.31237271 14.4310787,9.70790296 C14.4310787,10.5314888 15.098727,11.199137 15.9223128,11.199137 C16.7458986,11.199137 17.4135468,10.5314888 17.4135468,9.70790296 C17.4135468,8.88431715 16.7458986,8.21666888 15.9223128,8.21666888 Z" id="Combined-Shape" fill="url(#linearGradient-1)"></path>
    </g>
</svg>