<?xml version="1.0" encoding="UTF-8"?>
<svg width="21px" height="14px" viewBox="0 0 21 14" version="1.1" xmlns="http://www.w3.org/2000/svg" xmlns:xlink="http://www.w3.org/1999/xlink">
    <!-- Generator: Sketch 59.1 (86144) - https://sketch.com -->
    <title>Shape</title>
    <desc>Created with Sketch.</desc>
    <defs>
        <linearGradient x1="53.8571893%" y1="79.296875%" x2="53.8571893%" y2="0%" id="linearGradient-1">
            <stop stop-color="#F0CA4C" offset="0%"></stop>
            <stop stop-color="#F2F27C" offset="100%"></stop>
        </linearGradient>
    </defs>
    <g id="Page-1" stroke="none" stroke-width="1" fill="none" fill-rule="evenodd">
        <path d="M20.7576801,6.07291848 C18.7019804,2.43284239 14.868065,0 10.5,0 C6.13011106,0 2.29703421,2.43455435 0.242318927,6.07291848 C-0.0807729756,6.64501018 -0.0807729756,7.35502787 0.242318927,7.92711957 C2.29801858,11.5671576 6.13193398,14 10.5,14 C14.869888,14 18.7029648,11.5654457 20.7576801,7.92708152 C21.0807733,7.35500382 21.0807733,6.64499618 20.7576801,6.07291848 Z M10,12 C7.23669118,12 5,9.76371324 5,7 C5,4.23669118 7.23625,2 10,2 C12.7633088,2 15,4.23625 15,7 C15,9.76330882 12.76375,12 10,12 Z M14,7 C14,9.20915385 12.2091538,11 10,11 C7.79084615,11 6,9.20915385 6,7 C6,6.31892308 6.17042308,5.67773077 6.47061538,5.11642308 L6.47057692,5.11765385 C6.47057692,6.02730769 7.208,6.76469231 8.11765385,6.76469231 C9.02730769,6.76469231 9.76473077,6.02726923 9.76473077,5.11765385 C9.76473077,4.208 9.02730769,3.47057692 8.11765385,3.47057692 L8.11642308,3.47061538 C8.67773077,3.17042308 9.31892308,3 10,3 C12.2091538,3 14,4.79084615 14,7 Z" id="Shape" fill="url(#linearGradient-1)" fill-rule="nonzero"></path>
    </g>
</svg>