<svg xmlns="http://www.w3.org/2000/svg" xmlns:xlink="http://www.w3.org/1999/xlink" viewBox="0 0 1683.17 433.76"><defs><style>.cls-1,.cls-2{fill-rule:evenodd;}.cls-1{fill:url(#白金色);}.cls-2{fill:url(#linear-gradient);}.cls-3{fill:url(#未命名漸層_10);}.cls-4{fill:url(#未命名漸層_10-2);}.cls-5{fill:url(#未命名漸層_37);}.cls-6{fill:url(#未命名漸層_31);}.cls-7{fill:url(#未命名漸層_35);}.cls-8{fill:url(#linear-gradient-2);}.cls-9{fill:url(#linear-gradient-3);}.cls-10{fill:url(#白金色-2);}.cls-11{fill:url(#未命名漸層_15);}.cls-12{fill:url(#白金色-3);}.cls-13{fill:url(#linear-gradient-4);}.cls-14{fill:url(#白金色-4);}.cls-15{fill:url(#白金色-5);}.cls-16{fill:url(#linear-gradient-5);}.cls-17{fill:url(#白金色-6);}.cls-18{fill:url(#白金色-7);}.cls-19{fill:url(#白金色-8);}.cls-20{fill:url(#白金色-9);}.cls-21{fill:url(#白金色-10);}.cls-22{fill:url(#白金色-11);}.cls-23{fill:url(#未命名漸層_232);}.cls-24{fill:url(#未命名漸層_217);}.cls-25{fill:url(#未命名漸層_186);}.cls-26{fill:url(#linear-gradient-6);}.cls-27{fill:url(#linear-gradient-7);}</style><linearGradient id="白金色" x1="189.42" y1="433.76" x2="189.42" y2="77.75" gradientUnits="userSpaceOnUse"><stop offset="0.01" stop-color="#ebeced"/><stop offset="0.25" stop-color="#fffeea"/><stop offset="0.43" stop-color="#f0eddd"/><stop offset="0.6" stop-color="#e0dacf"/><stop offset="0.79" stop-color="#f4f4f4"/><stop offset="1" stop-color="#e1dec6"/></linearGradient><linearGradient id="linear-gradient" x1="1.15" y1="178.01" x2="380" y2="178.01" gradientUnits="userSpaceOnUse"><stop offset="0" stop-color="#b47a1a"/><stop offset="0.05" stop-color="#b9811e"/><stop offset="0.13" stop-color="#c69429"/><stop offset="0.22" stop-color="#dcb33c"/><stop offset="0.32" stop-color="#fade56"/><stop offset="0.33" stop-color="#ffe55a"/><stop offset="0.52" stop-color="#ffec88"/><stop offset="0.66" stop-color="#ffe55a"/><stop offset="1" stop-color="#b47a1a"/></linearGradient><linearGradient id="未命名漸層_10" x1="454.3" y1="303.54" x2="508.23" y2="303.54" gradientTransform="matrix(1, 0, -0.14, 1, 34.53, 0)" gradientUnits="userSpaceOnUse"><stop offset="0" stop-color="#b47a1a"/><stop offset="0.55" stop-color="#ffe55a"/><stop offset="0.57" stop-color="#fade56"/><stop offset="0.71" stop-color="#dcb33c"/><stop offset="0.83" stop-color="#c69429"/><stop offset="0.93" stop-color="#b9811e"/><stop offset="1" stop-color="#b47a1a"/></linearGradient><linearGradient id="未命名漸層_10-2" x1="564.13" y1="324.8" x2="564.13" y2="275.45" xlink:href="#未命名漸層_10"/><linearGradient id="未命名漸層_37" x1="575.19" y1="207.59" x2="575.19" y2="161.08" gradientTransform="matrix(1, 0, -0.14, 1, 34.53, 0)" gradientUnits="userSpaceOnUse"><stop offset="0" stop-color="#b47a1a"/><stop offset="0.05" stop-color="#b9811e"/><stop offset="0.13" stop-color="#c69429"/><stop offset="0.22" stop-color="#dcb33c"/><stop offset="0.32" stop-color="#fade56"/><stop offset="0.33" stop-color="#ffe55a"/><stop offset="1" stop-color="#b47a1a"/></linearGradient><linearGradient id="未命名漸層_31" x1="515.09" y1="256.79" x2="601.6" y2="256.79" gradientTransform="matrix(1, 0, -0.14, 1, 34.53, 0)" gradientUnits="userSpaceOnUse"><stop offset="0" stop-color="#ffe55a"/><stop offset="0.04" stop-color="#fade56"/><stop offset="0.34" stop-color="#dcb33c"/><stop offset="0.61" stop-color="#c69429"/><stop offset="0.84" stop-color="#b9811e"/><stop offset="1" stop-color="#b47a1a"/></linearGradient><linearGradient id="未命名漸層_35" x1="573.37" y1="368.11" x2="597.86" y2="229.22" gradientTransform="matrix(1, 0.02, -0.16, 1, 41.67, -11.47)" gradientUnits="userSpaceOnUse"><stop offset="0.01" stop-color="#deb53d"/><stop offset="0.06" stop-color="#d1a636"/><stop offset="0.18" stop-color="#b68727"/><stop offset="0.29" stop-color="#a5741e"/><stop offset="0.36" stop-color="#9f6d1b"/></linearGradient><linearGradient id="linear-gradient-2" x1="451.47" y1="261.61" x2="680.18" y2="221.28" gradientTransform="matrix(1, 0, -0.14, 1, 34.53, 0)" xlink:href="#linear-gradient"/><linearGradient id="linear-gradient-3" x1="577.84" y1="197.95" x2="577.84" y2="122.9" gradientTransform="matrix(1, 0, -0.14, 1, 34.53, 0)" xlink:href="#linear-gradient"/><linearGradient id="白金色-2" x1="690.96" y1="302.98" x2="737.81" y2="285.92" gradientTransform="matrix(1, 0, -0.14, 1, 37.1, 0)" xlink:href="#白金色"/><linearGradient id="未命名漸層_15" x1="711.53" y1="173.32" x2="768.46" y2="152.6" gradientTransform="matrix(1, 0, -0.14, 1, 37.1, 0)" xlink:href="#linear-gradient"/><linearGradient id="白金色-3" x1="717.36" y1="171.2" x2="768.46" y2="152.6" gradientTransform="matrix(1, 0, -0.14, 1, 37.1, 0)" xlink:href="#白金色"/><linearGradient id="linear-gradient-4" x1="734.46" y1="358.56" x2="734.41" y2="221.87" gradientTransform="matrix(0.98, 0, -0.14, 1.01, 54.79, -4.46)" xlink:href="#linear-gradient"/><linearGradient id="白金色-4" x1="707.27" y1="294.89" x2="779.72" y2="268.52" gradientTransform="matrix(1, 0, -0.14, 1, 37.1, 0)" xlink:href="#白金色"/><linearGradient id="白金色-5" x1="809.98" y1="278.31" x2="989.64" y2="278.31" gradientTransform="matrix(1, 0, -0.14, 1, 37.1, 0)" xlink:href="#白金色"/><linearGradient id="linear-gradient-5" x1="897.77" y1="359.46" x2="897.77" y2="213.38" gradientTransform="matrix(1, 0, -0.14, 1, 37.1, 0)" xlink:href="#linear-gradient"/><linearGradient id="白金色-6" x1="1144.34" y1="218.51" x2="1183.75" y2="218.51" gradientTransform="matrix(1, 0, -0.14, 1, 37.1, 0)" xlink:href="#白金色"/><linearGradient id="白金色-7" x1="1047" y1="219.1" x2="1086.17" y2="219.1" gradientTransform="matrix(1, 0, -0.14, 1, 37.1, 0)" xlink:href="#白金色"/><linearGradient id="白金色-8" x1="1240.03" y1="272.29" x2="1280.96" y2="272.29" gradientTransform="matrix(1, 0, -0.14, 1, 37.1, 0)" xlink:href="#白金色"/><linearGradient id="白金色-9" x1="1151.47" y1="291.69" x2="1212.34" y2="291.69" gradientTransform="matrix(1, 0, -0.14, 1, 37.1, 0)" xlink:href="#白金色"/><linearGradient id="白金色-10" x1="1053.95" y1="291.69" x2="1116.2" y2="291.69" gradientTransform="matrix(1, 0, -0.14, 1, 37.1, 0)" xlink:href="#白金色"/><linearGradient id="白金色-11" x1="1318.67" y1="240.82" x2="1490.93" y2="240.82" gradientTransform="matrix(1, 0, -0.09, 1, 20.9, 0)" xlink:href="#白金色"/><linearGradient id="未命名漸層_232" x1="1559.63" y1="151.11" x2="1606.32" y2="150.35" gradientTransform="matrix(1, 0.02, -0.02, 1, 3.91, -25.83)" gradientUnits="userSpaceOnUse"><stop offset="0.53" stop-color="#b77e1c"/><stop offset="1" stop-color="#fbe057"/></linearGradient><linearGradient id="未命名漸層_217" x1="1520.89" y1="281.29" x2="1565.33" y2="271.19" gradientTransform="matrix(1, 0.02, -0.02, 1, 3.91, -25.83)" gradientUnits="userSpaceOnUse"><stop offset="0" stop-color="#ffe55a"/><stop offset="0.46" stop-color="#b77e1c"/><stop offset="1" stop-color="#b47a1a"/></linearGradient><linearGradient id="未命名漸層_186" x1="1559.6" y1="214.43" x2="1681.81" y2="214.43" gradientTransform="matrix(1, 0.02, -0.02, 1, 3.91, -25.83)" gradientUnits="userSpaceOnUse"><stop offset="0" stop-color="#ffe55a"/><stop offset="1" stop-color="#b47a1a"/></linearGradient><linearGradient id="linear-gradient-6" x1="1580.69" y1="339.3" x2="1563.73" y2="92.5" gradientTransform="translate(18.95 -108.92) rotate(3.93)" xlink:href="#linear-gradient"/><linearGradient id="linear-gradient-7" x1="1151.08" y1="357.41" x2="1151.08" y2="204.42" gradientTransform="matrix(1, 0, -0.14, 1, 37.1, 0)" xlink:href="#linear-gradient"/></defs><title>88資產 13</title><g id="圖層_2" data-name="圖層 2"><g id="Layer_1" data-name="Layer 1"><polygon class="cls-1" points="313.28 185.64 329.5 157.54 191.29 77.75 88.16 135.73 346.4 284.83 346.4 305.67 189.43 396.3 32.45 305.67 32.45 222.72 0 203.98 0 324.4 189.43 433.76 378.85 324.4 378.08 265.65 154.4 136.51 191.29 115.21 313.28 185.64"/><polygon class="cls-2" points="66.72 248.12 50.5 276.22 188.71 356.02 291.84 298.04 33.6 148.94 33.6 128.1 190.57 37.47 347.56 128.1 347.56 211.05 380 229.78 380 109.36 190.57 0 1.15 109.36 1.16 167.91 225.6 297.25 188.71 318.55 66.72 248.12"/><path class="cls-3" d="M456.46,288.83l45.47,1.61a34.49,34.49,0,0,0,.05-5.71,31.33,31.33,0,0,0-.92-5.57H449.6c-1.24,20.4,3.71,36.7,14.41,48.77C458.1,317.26,455.52,304.21,456.46,288.83Z"/><path class="cls-4" d="M547,314.81c-18.82,0-32.42-4.26-40.86-12.24,6.45,14.39,22.38,22.23,47.95,22.23,27.12,0,49.94-7.55,53.06-29.77,1.14-8.12-.71-14.24-7.46-19.58a23.37,23.37,0,0,1,.37,9.59C597,307.26,574.14,314.81,547,314.81Z"/><path class="cls-5" d="M598.05,168.48c11.34,0,19.9,1.49,26.35,3.93-6.25-6.48-17.69-11.33-38.12-11.33-24.3,0-39.66,11-41.8,26.19-1.38,9.8,2.56,15.26,14.87,20.32-3-3.43-3.86-7.51-3.1-12.93C558.39,179.44,573.74,168.48,598.05,168.48Z"/><path class="cls-6" d="M515.77,240.82c11.52,8.94,29.77,16.15,56,23.23,11,3,19.55,5.78,26,8.71-6.16-5.88-17.87-10.7-37.64-16C541.45,251.69,526.81,246.58,515.77,240.82Z"/><path class="cls-7" d="M637.34,237.62c16.5,13.18,19.37,28.58,16.36,47-6.72,41.13-46.33,72.95-118.65,71.33-23.54-.53-42.67-4.68-57.12-12.29,15.09,12.46,38.15,19.18,68.59,19.87,72.32,1.62,111.93-30.21,118.66-71.33C668.78,270.13,663.94,252.4,637.34,237.62Z"/><path class="cls-8" d="M502,284.73c1.25,22.49,17.66,35,49.5,35,26.24,0,48.32-7.3,51.34-28.8,2.21-15.72-7.16-23.71-43-33.37-56.07-15.11-75.6-30.86-71.13-62.62C494.45,153.82,533.4,122.9,595,122.9c75.4,0,89.31,39.36,87,66.87H630.89c-.54-12.64-7.93-28.44-44.64-28.44-24,0-39.24,10.84-41.35,25.91-2.15,15.26,8.71,19.88,44.45,29.11,61.77,16.15,73.23,38,69,68.42-5.8,41.26-44.69,74-117,74-61.68,0-93.73-25.4-90.77-74Z"/><path class="cls-9" d="M594.26,128.34c70.56,0,87.27,34.46,87.21,61.43H682c2.34-27.51-11.57-66.87-87-66.87-61.63,0-100.58,30.92-106.36,72.09-.14,1-.26,2-.35,3C495.3,158,533.88,128.34,594.26,128.34Z"/><path class="cls-10" d="M698.09,329.52a83.32,83.32,0,0,1,2-9.42q1.3-4.8,3.53-10.85l15.6-38.38q2.14-5.52,3.79-10.45a54.87,54.87,0,0,0,2.25-9q1.11-7.38-1.19-10.3a7.12,7.12,0,0,0-3.77-2.25q1.83,3,.86,9.41a49,49,0,0,1-2.33,9q-1.73,4.89-4,10.38l-16.56,38.13q-2.35,6-3.73,10.78a72.36,72.36,0,0,0-2.06,9.36q-1.79,11.78,5.76,19.53a21.78,21.78,0,0,0,4.63,3.61Q696.32,341.26,698.09,329.52Z"/><path class="cls-11" d="M784.36,163.34a34,34,0,0,1-12,21.23q-10.16,8.72-22.59,8.57t-20-9q-7.58-8.9-5.7-21.42a34.17,34.17,0,0,1,12.12-21.31q10.25-8.79,22.68-8.65t19.93,9.13Q786.24,150.83,784.36,163.34Z"/><path class="cls-12" d="M778.75,141.84q-7.5-9-19.93-9.13a32.21,32.21,0,0,0-17.16,4.66,32.37,32.37,0,0,1,14-2.94q12.2.13,19.61,8.61t5.63,20.28q-1.77,11.81-11.69,20a33.21,33.21,0,0,1-22.11,8.08,27.41,27.41,0,0,1-12.89-3.12,26.1,26.1,0,0,0,15.52,4.85q12.43.13,22.59-8.57a34,34,0,0,0,12-21.23Q786.24,150.83,778.75,141.84Z"/><path class="cls-13" d="M774.13,329.24c-3.23,3.59-8.38,8.24-14.79,9.91a27.83,27.83,0,0,1-9.85.58c-3.53-.44-6.09-.75-7.93-2.81-2.54-2.83-2.25-7.16-1.75-10.52a64.38,64.38,0,0,1,2.39-9q1.93-6,3.92-10.59l16.38-38.52a69.3,69.3,0,0,0,3.88-11.66q1.53-6.37,1.92-8.89,1.85-12.21-5.29-19.93t-22.41-7.88a56.2,56.2,0,0,0-18.44,2.93c-17.95,6.45-28.38,21.54-31.41,26.26a30.66,30.66,0,0,1,13.52-9.49,25.4,25.4,0,0,1,8.63-1.24q8.36.09,10.87,3t1.39,10.38a51.82,51.82,0,0,1-2.33,9.09q-1.71,5-4,10.53l-16.44,38.65q-2.34,6.09-3.71,10.93a78.51,78.51,0,0,0-2.07,9.48q-1.8,12,5.55,19.81t22.75,8a59.57,59.57,0,0,0,18-2.54c16-5.37,27-18.74,31.91-26.09A3.71,3.71,0,0,1,774.13,329.24Z"/><path class="cls-14" d="M703.39,236.66A53.92,53.92,0,0,1,738,225.2q15.6.17,22.91,7.79t5.5,19.69q-.37,2.49-1.92,8.78a67.07,67.07,0,0,1-3.9,11.52l-16.53,38c-1.33,3.06-2.65,6.54-3.94,10.47a59.17,59.17,0,0,0-2.4,8.91c-.5,3.32-.78,7.59,1.84,10.39,1.89,2,4.5,2.34,8.11,2.78a29.39,29.39,0,0,0,10.05-.57c11.26-2.85,18.7-14.44,18.81-14.35s5.43-7.81,5.37-7.86-7.55,11.49-18.81,14.34a29.22,29.22,0,0,1-10.05.58c-3.61-.44-6.22-.75-8.11-2.78-2.61-2.8-2.34-7.08-1.84-10.4a60.05,60.05,0,0,1,2.4-8.9q1.93-5.89,4-10.47l16.52-38a65.4,65.4,0,0,0,3.9-11.52q1.54-6.28,1.92-8.78,1.82-12.06-5.5-19.69t-22.91-7.79a58.67,58.67,0,0,0-18.82,2.89c-18.73,6.52-29.38,22.06-32.34,26.68a32.39,32.39,0,0,1,2.68-3.15A51.35,51.35,0,0,1,703.39,236.66Z"/><path class="cls-15" d="M899.67,329.69h-1.14Q893,333.85,888,337.33a94.55,94.55,0,0,1-25.6,12,53,53,0,0,1-14.87,2q-24.76,0-35.28-14.31t-7-39.18a102.5,102.5,0,0,1,12-35.89A121.29,121.29,0,0,1,840,232.51a108,108,0,0,1,30.41-19.91,85.31,85.31,0,0,1,34.33-7.33,72.72,72.72,0,0,1,22,2.94q9.19,2.94,14.61,8l44.87-8.81,1.67,2.24-33,86q-1.75,4.34-3.94,10.83a60,60,0,0,0-2.67,9.86q-1.12,8,2.16,11t12.38,3a40,40,0,0,0,9.81-1.53,78.77,78.77,0,0,0,8.25-2.52L976,338.77q-14.85,5.46-23.7,8.32A64.71,64.71,0,0,1,932.35,350q-14.64,0-22.58-5.67A24.55,24.55,0,0,1,899.67,329.69ZM929.06,241a36.79,36.79,0,0,0,.16-7.26,15.91,15.91,0,0,0-2-7.12,13.31,13.31,0,0,0-5.91-5.51,22.82,22.82,0,0,0-10-1.89q-9.41,0-18.23,6.63a76.29,76.29,0,0,0-16.51,17.66,117.56,117.56,0,0,0-13,25.35,137.7,137.7,0,0,0-7.56,29.52,70.92,70.92,0,0,0-.72,12.71,26.28,26.28,0,0,0,2.1,9.91,14.5,14.5,0,0,0,6,6.7q4,2.37,10.57,2.38a27,27,0,0,0,13.44-3.84,70.31,70.31,0,0,0,12.79-9.43Z"/><path class="cls-16" d="M896.49,337.79h-1.14q-5.58,4.17-10.54,7.64a85.3,85.3,0,0,1-12.29,6.94,87.78,87.78,0,0,1-13.31,5.07,53,53,0,0,1-14.87,2q-24.76,0-35.28-14.32T802,306a102.36,102.36,0,0,1,12-35.89,121.34,121.34,0,0,1,22.79-29.47,107.93,107.93,0,0,1,30.41-19.9,85.14,85.14,0,0,1,34.33-7.33,73.06,73.06,0,0,1,22,2.93q9.2,2.94,14.61,8l44.87-8.81,1.67,2.24-33,86Q950,308,947.78,314.51a60.29,60.29,0,0,0-2.67,9.86q-1.12,8,2.16,11t12.38,3a39.55,39.55,0,0,0,9.81-1.54,76.94,76.94,0,0,0,8.25-2.51l-4.89,12.58q-14.85,5.44-23.7,8.31a64.71,64.71,0,0,1-20,2.87q-14.64,0-22.58-5.66A24.57,24.57,0,0,1,896.49,337.79Zm29.39-88.66a36.67,36.67,0,0,0,.16-7.25,15.87,15.87,0,0,0-2-7.12,13.39,13.39,0,0,0-5.91-5.52,22.82,22.82,0,0,0-10-1.88q-9.4,0-18.23,6.63a76.29,76.29,0,0,0-16.51,17.66,117.71,117.71,0,0,0-13,25.34,137.63,137.63,0,0,0-7.56,29.53,70.81,70.81,0,0,0-.72,12.7,26.24,26.24,0,0,0,2.1,9.91,14.53,14.53,0,0,0,6,6.71q4,2.37,10.57,2.37a27,27,0,0,0,13.44-3.84A70.25,70.25,0,0,0,897,325Z"/><path class="cls-17" d="M1172.85,212.53a24.52,24.52,0,0,1,8,20.07h1c2.4-1.84,4.74-3.57,7.05-5.24a24.29,24.29,0,0,0-7.76-14.83q-8.6-8.11-23.8-8.11c-1.56,0-3.11,0-4.63.12Q1165.31,205.43,1172.85,212.53Z"/><path class="cls-18" d="M1075.47,213.34q6.94,7.31,8.58,18.82h1c2.11-1.72,4.18-3.33,6.24-4.9a31.53,31.53,0,0,0-7.57-13.92q-6.95-7.31-25-7.3c-1.2,0-2.43.05-3.68.13Q1069.45,207,1075.47,213.34Z"/><path class="cls-19" d="M1269.8,213.71q8.33,9.3,6.47,22.55c-.33,2.33-1,5.61-1.92,9.82a81.56,81.56,0,0,1-4.42,13.49l-17.56,42.8q-2.26,5.34-4.45,12.19a70.56,70.56,0,0,0-2.67,10.36q-1.23,8.83,2.2,12t13.21,3.2a32.46,32.46,0,0,0,3.68-.26c-3.86-.42-6.64-1.4-8.3-2.94q-3.43-3.21-2.2-12a70.56,70.56,0,0,1,2.67-10.36q2.17-6.85,4.45-12.19l17.56-42.8a81.56,81.56,0,0,0,4.42-13.49c1-4.21,1.59-7.49,1.92-9.82q1.86-13.26-6.47-22.55t-25.31-9.29c-1.58,0-3.15,0-4.7.13Q1262.45,205.52,1269.8,213.71Z"/><path class="cls-20" d="M1212.49,229.2q-5.6,0-14.91,5a115.91,115.91,0,0,0-19.34,13.43L1138.8,354.18h8.28l39.44-106.53a115.91,115.91,0,0,1,19.34-13.43,45.28,45.28,0,0,1,11.31-4.57A22.8,22.8,0,0,0,1212.49,229.2Z"/><path class="cls-21" d="M1121,229.64a23.77,23.77,0,0,0-4.7-.44c-3,0-7.45,1.24-13.2,3.69s-13.22,7.38-22.41,14.76l-39.44,106.53h8.28L1089,247.65q13.79-11.07,22.41-14.76A53.79,53.79,0,0,1,1121,229.64Z"/><path class="cls-22" d="M1309.36,345.32l1.19-4.24c10.72-38.14,26.51-65.41,83.51-97,39.64-21.88,53.73-28.38,55.17-46.14,1.22-15.08-6.7-24.33-23.63-24.33-20.36,0-30.49,13.93-37.12,33h-44.71c11.14-43.21,41.67-70.33,88.59-70.33,37.14,0,65.36,22,62.16,61.49-2.62,32.3-21.28,46.66-67.94,71.48-36.51,19.51-47.54,29.18-53.91,38.7h100.94l-15.17,37.32Z"/><path class="cls-23" d="M1586.85,116c5.67-5.93,12-9.52,18.9-10.82a26.77,26.77,0,0,0-4.44-.68q-15.46-1.06-27.28,11.29T1561,146.19a30.61,30.61,0,0,0,2.53,15.43,40,40,0,0,0,8.88,12,126.6,126.6,0,0,0,14.24,11.13q9.48,6.6,17.16,12.16c1.3-1.95,2.56-4,3.79-6.25-2.59-1.83-5.29-3.73-8.13-5.71a127.67,127.67,0,0,1-14.24-11.12,40.21,40.21,0,0,1-8.88-12,30.63,30.63,0,0,1-2.53-15.44Q1575,128.38,1586.85,116Z"/><path class="cls-24" d="M1542.3,311.65q-8.05-11.55-6.75-30.45a95.17,95.17,0,0,1,9.13-35.06,108,108,0,0,1,10.86-18.5q-4.12-2.76-8.15-5.59-7.7,7.55-15.53,23.88a95.17,95.17,0,0,0-9.13,35.06q-1.31,18.9,6.75,30.45t23,12.58a51.58,51.58,0,0,0,9.34-.19A28.36,28.36,0,0,1,1542.3,311.65Z"/><path class="cls-25" d="M1667.05,108.91q-17.52-15.72-48.73-17.86a118.76,118.76,0,0,0-12.51-.18q31,2.2,48.41,17.83t16,37.57q-1.52,22-17.14,36.38T1611,203.57q22.5,11.61,32.58,26.81a51.43,51.43,0,0,1,8.88,32.72q-2.38,34.54-33.28,56.07-25.6,17.83-61.44,18.71,44.17,2.42,74.26-18.5,30.9-21.53,33.28-56.07a51.43,51.43,0,0,0-8.88-32.72q-10.08-15.19-32.58-26.81,26.45-6.56,42.06-20.92t17.14-36.38Q1684.56,124.61,1667.05,108.91Z"/><path class="cls-26" d="M1672.36,146.3q-1.52,22-17.13,36.38t-42.06,20.92q22.5,11.61,32.58,26.81a51.43,51.43,0,0,1,8.88,32.72q-2.39,34.55-33.28,56.07t-76.68,18.37q-34.49-2.37-53.94-19.05T1473,277q1.65-24,17.8-39.94t47.37-21.65q-17.39-11.08-24.3-26.15a62.75,62.75,0,0,1-5.83-30.92,60.8,60.8,0,0,1,9.37-28.79,75.12,75.12,0,0,1,22.22-22.36q13-8.67,31.29-13.11a120.2,120.2,0,0,1,36.74-3.18q31.21,2.14,48.72,17.85T1672.36,146.3ZM1601,278.61q.67-9.69-3.35-16.78a47.87,47.87,0,0,0-11.25-13.12,161.1,161.1,0,0,0-18.33-13q-10.65-6.61-20.67-13.67-7.7,7.55-15.53,23.88a95.17,95.17,0,0,0-9.13,35.06q-1.31,18.9,6.75,30.45t23,12.58q20.29,1.39,33.73-12T1601,278.61Zm22.38-138.7q1-14.68-4.58-24.63t-17.48-10.76q-15.46-1.06-27.28,11.29T1561,146.19a30.61,30.61,0,0,0,2.53,15.43,40,40,0,0,0,8.88,12,126.6,126.6,0,0,0,14.24,11.13q9.48,6.6,17.16,12.16a123.5,123.5,0,0,0,12.88-26.62A112.45,112.45,0,0,0,1623.37,139.91Z"/><path class="cls-27" d="M1295.22,326c-8.43,10-18.26,20.2-30.32,25.92-13.87,6.58-30,6.45-43.57,3.9-14.94-2.81-26.47-13.05-24.14-29.65q.49-3.54,1.65-9.07a87.32,87.32,0,0,1,4.39-13.8L1219.44,264q2.54-6.34,4.06-11.44a59.13,59.13,0,0,0,2-8.34q1-7.08-2-11.06t-10.93-4q-5.6,0-14.91,5a115.86,115.86,0,0,0-19.33,13.43l-39.45,106.53h-48.76l33.3-90q2.65-7.37,4.12-12a50.85,50.85,0,0,0,1.93-8q1-7.08-2-11.06t-11.08-4c-3.05,0-7.44,1.24-13.19,3.69s-13.22,7.38-22.41,14.76l-39.45,106.53H992.59l33.73-90.74q1.47-4.14,3.82-10.92a62,62,0,0,0,2.94-10.92q1.17-8.41-1.62-11.58t-12.4-3.18a36,36,0,0,0-9.88,1.48c-3.44,1-6.4,1.92-8.89,2.8l5.11-13.28q12.65-4.86,24.05-8.33a73.19,73.19,0,0,1,21.16-3.47q18,0,24.94,7.3t8.58,18.82h1q16.66-13.57,31.39-20.66a74.22,74.22,0,0,1,32.58-7.08q15.21,0,23.8,8.11a24.52,24.52,0,0,1,8,20.07h1q17.68-13.57,32.28-20.88a70.45,70.45,0,0,1,32-7.3q16.36,0,24.39,9t6.22,21.83q-.48,3.41-1.85,9.52a79.43,79.43,0,0,1-4.27,13.06l-17,41.46q-2.19,5.16-4.29,11.8a66,66,0,0,0-2.58,10c-.48,3.34-.75,8.4,2.11,11.65a5.92,5.92,0,0,0,.62.61c5,4.55,12.36,5.36,12.8,5.41,6.6.64,12.13-1.72,16-3.41,11.94-5.24,19.46-14.25,20-13.71C1298.57,321.92,1297.14,323.69,1295.22,326Z"/></g></g></svg>