<?xml version="1.0" encoding="UTF-8"?>
<svg width="26px" height="26px" viewBox="0 0 26 26" version="1.1" xmlns="http://www.w3.org/2000/svg" xmlns:xlink="http://www.w3.org/1999/xlink">
    <!-- Generator: Sketch 59.1 (86144) - https://sketch.com -->
    <title>Slice</title>
    <desc>Created with Sketch.</desc>
    <g id="Page-1" stroke="none" stroke-width="1" fill="none" fill-rule="evenodd">
        <g id="Group" transform="translate(0.576512, 1.405694)" fill-rule="nonzero">
            <path d="M25.2013527,11.3468736 C25.2594504,11.0408368 25.2881959,10.7833411 25.301393,10.5813644 C25.3232365,10.2480232 25.2983592,9.75313103 25.2894853,9.59817857 C24.9824625,4.25804505 19.4420967,0.00348889532 12.652403,0.00348889532 C5.66566262,0.00348889532 0.00189613876,4.50848706 0.00189613876,10.0656905 C0.00189613876,15.173585 4.78684023,19.3924179 10.9859246,20.0413524 C11.3649248,20.0810196 11.6381963,20.4231589 11.5961779,20.8018557 L11.3322354,23.1774901 C11.2723174,23.7167519 11.8299339,24.109101 12.3186068,23.8732213 C17.5560454,21.3455925 20.6878599,18.7452278 22.5580595,16.4923874 C22.8983785,16.0824422 24.0080747,14.5276843 24.234322,14.1193318 C24.714576,13.2524172 25.0456418,12.3214889 25.2013527,11.3468736 Z" id="Path" fill="#FFFFFF"></path>
            <path d="M5.69622838,12.1040397 L5.69622838,7.86563866 C5.69622838,7.50825442 5.40649837,7.21852442 5.04911414,7.21852442 L5.04911414,7.21852442 C4.69172991,7.21852442 4.4019999,7.50825442 4.4019999,7.86563866 L4.4019999,12.7511539 C4.4019999,13.1085382 4.69172991,13.3982682 5.04911414,13.3982682 L7.63749524,13.3982682 C7.99487947,13.3982682 8.28460948,13.1085382 8.28460948,12.7511539 L8.28460948,12.7511539 C8.28460948,12.3937697 7.99487947,12.1040397 7.63749524,12.1040397 L5.69622838,12.1040397 Z" id="Path" fill="#00C500"></path>
            <path d="M9.68782801,13.3982682 L9.4049241,13.3982682 C9.12566079,13.3982682 8.89926182,13.1718692 8.89926182,12.8926059 L8.89926182,7.72418671 C8.89926182,7.44492339 9.12566079,7.21852442 9.4049241,7.21852442 L9.68782801,7.21852442 C9.96709132,7.21852442 10.1934903,7.44492339 10.1934903,7.72418671 L10.1934903,12.8926059 C10.1934903,13.1718692 9.96709132,13.3982682 9.68782801,13.3982682 Z" id="Path" fill="#00C500"></path>
            <path d="M14.9171512,7.86563866 L14.9171512,10.8502369 C14.9171512,10.8502369 12.3328657,7.47943311 12.293426,7.43513931 C12.1699495,7.29656949 11.987996,7.21131909 11.7860193,7.21897949 C11.4340201,7.23232831 11.1640858,7.53995786 11.1640858,7.8921846 L11.1640858,12.7510781 C11.1640858,13.1084623 11.4538158,13.3982172 11.8112,13.3982172 L11.8112,13.3982172 C12.1685843,13.3982172 12.4583143,13.1084623 12.4583143,12.7510781 L12.4583143,9.78460693 C12.4583143,9.78460693 15.0818877,13.184763 15.1204172,13.2213205 C15.2348682,13.329628 15.3886071,13.3966754 15.5582736,13.3982172 C15.9176298,13.4014537 16.2113796,13.083585 16.2113796,12.7242288 L16.2113796,7.86563866 C16.2113796,7.50825442 15.9216496,7.21850299 15.5642654,7.21850299 L15.5642654,7.21850299 C15.2068812,7.21860027 14.9171512,7.50825442 14.9171512,7.86563866 Z" id="Path" fill="#00C500"></path>
            <path d="M21.0645089,7.86563866 L21.0645089,7.86563866 C21.0645089,7.50825442 20.7747789,7.21852442 20.4173946,7.21852442 L17.8290135,7.21852442 C17.4716293,7.21852442 17.1818993,7.50825442 17.1818993,7.86563866 L17.1818993,12.7511539 C17.1818993,13.1085382 17.4716293,13.3982682 17.8290135,13.3982682 L20.4173946,13.3982682 C20.7747789,13.3982682 21.0645089,13.1085382 21.0645089,12.7511539 L21.0645089,12.7511539 C21.0645089,12.3937697 20.7747789,12.1040397 20.4173946,12.1040397 L18.4761278,12.1040397 L18.4761278,10.9554347 L20.4173946,10.9554347 C20.7747789,10.9554347 21.0645089,10.6657047 21.0645089,10.3083205 L21.0645089,10.3083205 C21.0645089,9.95093622 20.7747789,9.66120622 20.4173946,9.66120622 L18.4761278,9.66120622 L18.4761278,8.5126012 L20.4173946,8.5126012 C20.7747789,8.51275289 21.0645089,8.22302289 21.0645089,7.86563866 Z" id="Path" fill="#00C500"></path>
        </g>
    </g>
</svg>