<?xml version="1.0" encoding="UTF-8"?>
<svg width="32px" height="32px" viewBox="0 0 32 32" version="1.1" xmlns="http://www.w3.org/2000/svg" xmlns:xlink="http://www.w3.org/1999/xlink">
    <!-- Generator: Sketch 59.1 (86144) - https://sketch.com -->
    <title>Group 12</title>
    <desc>Created with Sketch.</desc>
    <g id="Page-1" stroke="none" stroke-width="1" fill="none" fill-rule="evenodd">
        <g id="Group-12" transform="translate(1.000000, 1.000000)" fill-rule="nonzero">
            <path d="M30,15 C30,6.71572875 23.2842712,0 15,0 C6.71572875,0 0,6.71572875 0,15 C0,23.2842712 6.71572875,30 15,30 C18.9782473,30 22.793556,28.4196474 25.6066017,25.6066017 C28.4196474,22.793556 30,18.9782473 30,15 Z" id="Path" stroke="#FDE174"></path>
            <path d="M16.2754522,11.4 L16.2754522,9.96043426 C16.2754522,9.25910736 16.7198966,9.09191797 17.0320413,9.09191797 L18.9565891,9.09191797 L18.9565891,6.01085645 L16.3085271,6 C13.3669251,6 12.6992248,8.29939686 12.6992248,9.77370326 L12.6992248,11.4 L11,11.4 L11,15 L12.7260982,15 L12.7260982,24 L16.1431525,24 L16.1431525,15 L18.6857881,15 L19,11.3978287 L16.2754522,11.4 Z" id="Path" fill="#FDE174"></path>
        </g>
    </g>
</svg>