<?xml version="1.0" encoding="UTF-8"?>
<svg width="32px" height="32px" viewBox="0 0 32 32" version="1.1" xmlns="http://www.w3.org/2000/svg" xmlns:xlink="http://www.w3.org/1999/xlink">
    <!-- Generator: Sketch 59.1 (86144) - https://sketch.com -->
    <title>Group 13</title>
    <desc>Created with Sketch.</desc>
    <g id="Page-1" stroke="none" stroke-width="1" fill="none" fill-rule="evenodd">
        <g id="Group-13" transform="translate(1.000000, 1.000000)" fill-rule="nonzero">
            <path d="M15,0 C6.71572875,0 0,6.71572875 0,15 C0,23.2842712 6.71572875,30 15,30 C23.2842712,30 30,23.2842712 30,15 C30,11.0217527 28.4196474,7.20644396 25.6066017,4.39339828 C22.793556,1.58035261 18.9782473,0 15,0 Z" id="Path" stroke="#FDE174"></path>
            <path d="M15.5,20 C18.5375661,20 21,17.5375661 21,14.5 C21,11.4624339 18.5375661,9 15.5,9 C12.4624339,9 10,11.4624339 10,14.5 C10,17.5375661 12.4624339,20 15.5,20 Z M11.3376,14.5022 C11.3376,12.8164865 12.3532859,11.2968424 13.9108526,10.6521596 C15.4684193,10.0074768 17.260979,10.3647777 18.4523286,11.5573867 C19.6436782,12.7499956 19.999085,14.5429318 19.352757,16.0998165 C18.7064289,17.6567012 17.1857125,18.6707801 15.5,18.6690023 C13.2034666,18.6593417 11.344832,16.7987423 11.3376,14.5022 Z" id="Shape" fill="#FDE174"></path>
            <path d="M20.3506261,24 L9.64937388,24 C7.63388034,24 6,22.3507781 6,20.3163597 L6,9.6836403 C6,7.64922194 7.63388034,6 9.64937388,6 L20.3506261,6 C22.3661197,6 24,7.64922194 24,9.6836403 L24,20.3228602 C23.9964477,22.3547395 22.3636073,24 20.3506261,24 Z M9.64937388,7.34561213 C8.37061881,7.34680673 7.3342783,8.39287814 7.33309481,9.6836403 L7.33309481,20.3228602 C7.33546288,21.6124248 8.37180307,22.6565547 9.64937388,22.6565547 L20.3506261,22.6565547 C21.6278483,22.6565547 22.6635737,21.6120745 22.6647585,20.3228602 L22.6647585,9.6836403 C22.6647585,8.39322873 21.6290333,7.34680807 20.3506261,7.34561213 L9.64937388,7.34561213 Z" id="Shape" fill="#FDE174"></path>
            <path d="M20,9 C19.4477153,9 19,9.44771525 19,10 C19,10.5522847 19.4477153,11 20,11 C20.5522847,11 21,10.5522847 21,10 C20.993174,9.45056752 20.5494325,9.00682603 20,9 L20,9 Z" id="Path" fill="#FDE174"></path>
        </g>
    </g>
</svg>