<?xml version="1.0" encoding="UTF-8"?>
<svg width="32px" height="32px" viewBox="0 0 32 32" version="1.1" xmlns="http://www.w3.org/2000/svg" xmlns:xlink="http://www.w3.org/1999/xlink">
    <!-- Generator: Sketch 59.1 (86144) - https://sketch.com -->
    <title>Group 10</title>
    <desc>Created with Sketch.</desc>
    <g id="Page-1" stroke="none" stroke-width="1" fill="none" fill-rule="evenodd">
        <g id="Group-10" transform="translate(1.000000, 1.000000)" fill-rule="nonzero">
            <path d="M30,15 C30,6.71572875 23.2842712,0 15,0 C6.71572875,0 0,6.71572875 0,15 C0,23.2842712 6.71572875,30 15,30 C18.9782473,30 22.793556,28.4196474 25.6066017,25.6066017 C28.4196474,22.793556 30,18.9782473 30,15 Z" id="Path" stroke="#FDE174"></path>
            <path d="M23.0139622,16.8046021 C23.1395205,16.2415207 23.2023817,15.6662742 23.2013979,15.089365 C23.2013979,14.8844955 23.2013979,14.6861644 23.1752441,14.4856538 C22.8246526,10.2876972 19.3018873,7.06691714 15.0893526,7.09291651 C14.6248222,7.09328591 14.1611429,7.13265449 13.7031998,7.21060749 C12.9521214,6.7442657 12.0852284,6.49809486 11.2011504,6.5 C8.62329632,6.48319018 6.51919163,8.55800874 6.5,11.1358197 C6.50265451,11.9600977 6.72860917,12.7682537 7.15384567,13.4743832 C7.09171674,13.7656508 7.04731895,14.0604199 7.02089705,14.3570655 C6.9991022,14.5968064 6.98602528,14.8365473 6.98602528,15.0806471 C6.98602528,19.4984179 10.6192277,23.0792751 15.1002501,23.0792751 C15.5973209,23.0787984 16.0933396,23.0335737 16.5823002,22.9441484 C17.2648985,23.3070463 18.0257694,23.4978232 18.7988371,23.5 C21.3762018,23.5156198 23.4795987,21.4414991 23.5,18.8641943 C23.5016649,18.1490574 23.3351769,17.4435441 23.0139622,16.8046021 L23.0139622,16.8046021 Z" id="Path" stroke="#FDE174"></path>
            <path d="M12.7111146,9.87331879 L12.7111146,9.87331879 C12.130045,10.0767193 11.616958,10.4455282 11.2314162,10.9369317 C10.8829322,11.396375 10.6959172,11.9637026 10.7008386,12.546489 C10.6831466,13.1169169 10.8587583,13.6759267 11.1975945,14.1277703 C11.5491833,14.5668819 12.0018863,14.9085789 12.5145261,15.1217807 C13.1644427,15.3917073 13.8374638,15.5985147 14.524802,15.7395027 C15.1103398,15.8656572 15.5817294,15.9874615 15.9326293,16.0983905 C16.2363649,16.1870262 16.5162507,16.3462776 16.7506911,16.5638571 C16.9516247,16.7563991 17.0605416,17.0298216 17.0487446,17.3120837 C17.0408127,17.7205674 16.8248858,18.0947229 16.4801177,18.2973938 C16.017112,18.5918134 15.4786247,18.7358296 14.9348898,18.7106585 C14.5535038,18.7269894 14.1732676,18.6572031 13.8208883,18.5062013 C13.5732164,18.3897808 13.3558903,18.2146115 13.1867319,17.9950581 C13.0099376,17.7455143 12.862358,17.4753896 12.7470501,17.1902794 C12.6500424,16.932511 12.4958633,16.70162 12.296799,16.5160054 C12.1076259,16.352842 11.8671352,16.2662324 11.6203655,16.2723967 C11.3252551,16.2629484 11.0383324,16.3730749 10.8213284,16.5790826 C10.6151602,16.7688139 10.4981371,17.040534 10.5,17.3251342 C10.517744,17.8411825 10.6889183,18.3392108 10.9904367,18.751985 C11.3186029,19.2340995 11.7532853,19.6291897 12.2587496,19.9047761 C12.9795741,20.2984651 13.9033287,20.4985722 15.0067609,20.4985722 C15.8257608,20.5163165 16.6401851,20.3685189 17.4038722,20.0635567 C18.024475,19.8180231 18.5646787,19.3964222 18.9617832,18.8476884 C19.3169983,18.3334534 19.5049443,17.7167393 19.4987023,17.0858757 C19.5131906,16.6027784 19.4061541,16.1240216 19.1879657,15.6960012 C18.977346,15.3145642 18.6799499,14.9913884 18.3212852,14.7541926 C17.9119015,14.4905556 17.4705325,14.2835909 17.0085814,14.1386457 C16.5054839,13.9733398 15.9347431,13.8189093 15.3174975,13.6818794 C14.8270832,13.5644253 14.4719556,13.4643717 14.2605701,13.4143449 C14.0473227,13.3539516 13.8405302,13.271608 13.6433245,13.1685612 C13.4678488,13.0830265 13.3116248,12.9607983 13.184618,12.8096734 C13.0822268,12.6803164 13.0282356,12.5175095 13.0324205,12.350732 C13.0488539,12.0293437 13.2299569,11.7411252 13.5080378,11.5938051 C13.9005923,11.351098 14.3523663,11.2288462 14.8101724,11.2414425 C15.4020517,11.2414425 15.8332781,11.3436712 16.0911684,11.5459534 C16.3791406,11.7814579 16.6142177,12.0782499 16.780285,12.4159843 C16.9002216,12.6477413 17.0542357,12.8590409 17.2368777,13.0424067 C17.4235884,13.1968066 17.6593888,13.274324 17.8985142,13.2599144 C18.495491,13.2624741 18.9848845,12.7734047 18.9998326,12.1593252 C18.994001,11.8434289 18.911916,11.5339829 18.760967,11.2588431 C18.5733648,10.9188721 18.3192853,10.6226248 18.0147763,10.3888121 C17.6340326,10.0938428 17.204243,9.87272406 16.7464634,9.73628891 C16.1663493,9.56752478 15.565091,9.48835818 14.9623699,9.50138054 C14.1970608,9.48574768 13.4350408,9.60869888 12.7111146,9.86461848" id="path78" fill="#FDE174"></path>
        </g>
    </g>
</svg>