<?xml version="1.0" encoding="UTF-8"?>
<svg width="32px" height="32px" viewBox="0 0 32 32" version="1.1" xmlns="http://www.w3.org/2000/svg" xmlns:xlink="http://www.w3.org/1999/xlink">
    <!-- Generator: Sketch 59.1 (86144) - https://sketch.com -->
    <title>Group 14</title>
    <desc>Created with Sketch.</desc>
    <g id="Page-1" stroke="none" stroke-width="1" fill="none" fill-rule="evenodd">
        <g id="Group-14" transform="translate(1.000000, 1.000000)" fill-rule="nonzero">
            <path d="M30,15 C30,6.71572875 23.2842712,0 15,0 C6.71572875,0 0,6.71572875 0,15 C0,23.2842712 6.71572875,30 15,30 C18.9782473,30 22.793556,28.4196474 25.6066017,25.6066017 C28.4196474,22.793556 30,18.9782473 30,15 Z" id="Path" stroke="#FDE174"></path>
            <path d="M23.8991951,10.7308074 C23.2753469,10.975132 22.6203339,11.1369969 21.9518289,11.2120346 C22.6779728,10.7999867 23.2360507,10.1592576 23.5328373,9.3968795 C23.5397464,9.37503972 23.5325153,9.35131711 23.5144644,9.33660465 C23.4964134,9.32189219 23.4710304,9.31903255 23.4499706,9.32933884 C22.7563576,9.7042665 22.0055367,9.97001092 21.2256555,10.1166096 C20.5197078,9.40004374 19.540193,8.99624571 18.5172246,9 C16.4864091,8.98719947 14.8280251,10.5677587 14.8100327,12.5332987 C14.810669,12.8046869 14.8428551,13.0751439 14.9059835,13.3395653 C11.9458386,13.2041356 9.17948653,11.8753451 7.27789088,9.6754847 C7.27452483,9.66916343 7.26779274,9.66519131 7.26044527,9.66519131 C7.25309779,9.66519131 7.2463657,9.66916343 7.24299966,9.6754847 C6.29578877,11.2610858 6.7711099,13.2853115 8.33335024,14.3189048 C8.34380135,14.3230934 8.34920834,14.3343212 8.34580204,14.3447613 C8.34239573,14.3552014 8.33130713,14.3613874 8.32026603,14.359007 C7.77047021,14.3319462 7.23361475,14.1878106 6.7479805,13.9368779 C6.74251371,13.9325874 6.73491857,13.9318965 6.72872158,13.9351262 C6.72252459,13.9383558 6.71893969,13.9448733 6.71963138,13.9516525 C6.74095197,14.3929518 6.82610142,14.8291777 6.97259272,15.2475888 C7.44465493,16.3729287 8.46836397,17.1941221 9.69846916,17.4342175 C9.37806669,17.5154565 9.04836454,17.5572955 8.71715364,17.5587456 C8.49771835,17.5575849 8.27881048,17.5378098 8.06294329,17.4996475 C8.05601356,17.4984637 8.04895932,17.5009612 8.04445443,17.5061933 C8.03994955,17.5114255 8.03868354,17.5185916 8.04113628,17.5249753 C8.54113587,18.934276 9.88903365,19.8978123 11.4277652,19.9458857 C11.4371516,19.9458857 11.4454849,19.951699 11.4484531,19.9603177 C11.4514214,19.9689363 11.4483585,19.9784264 11.4408494,19.9838773 C10.1298644,20.9462908 8.52860519,21.4653687 6.88318397,21.4613291 C6.58808206,21.4611776 6.29322227,21.4449704 6,21.4127843 C7.70146413,22.4523231 9.67298951,23.0027483 11.6850879,23 C14.5723362,23 16.9035058,22.0375353 18.6349825,20.5706367 C20.3211228,19.1280898 21.4946779,17.2079199 21.9889009,15.0829584 C22.1531587,14.3813473 22.2365347,13.6642717 22.2375008,12.9448746 C22.2375008,12.7929081 22.2375008,12.638831 22.2375008,12.4868645 C22.9103978,12.0258736 23.4998746,11.4603261 23.9820617,10.8131226 C24.0055469,10.7909748 24.0060351,10.7545935 23.9831521,10.7318628 C23.9602691,10.7091321 23.9226803,10.7086596 23.8991951,10.7308074 L23.8991951,10.7308074 Z" id="Path" fill="#FDE174"></path>
        </g>
    </g>
</svg>