<?xml version="1.0" encoding="UTF-8"?>
<svg width="32px" height="32px" viewBox="0 0 32 32" version="1.1" xmlns="http://www.w3.org/2000/svg" xmlns:xlink="http://www.w3.org/1999/xlink">
    <!-- Generator: Sketch 59.1 (86144) - https://sketch.com -->
    <title>Group 52</title>
    <desc>Created with Sketch.</desc>
    <g id="Page-1" stroke="none" stroke-width="1" fill="none" fill-rule="evenodd">
        <g id="Group-52" transform="translate(1.000000, 1.000000)" fill-rule="nonzero">
            <path d="M30,15 C30,6.71572875 23.2842712,0 15,0 C6.71572875,0 0,6.71572875 0,15 C0,23.2842712 6.71572875,30 15,30 C18.9782473,30 22.793556,28.4196474 25.6066017,25.6066017 C28.4196474,22.793556 30,18.9782473 30,15 Z" id="Path" stroke="#FDE174"></path>
            <g id="Group-51" transform="translate(6.000000, 6.000000)" fill="#FDE174">
                <path d="M17.9989333,8.54305045 C17.8533207,3.81477129 13.9980585,0.0444701205 9.26377006,0.000390004796 C4.52948162,-0.0436901109 0.604567685,3.65417122 0.370791618,8.37891796 C0.370791618,8.5068134 0.360124705,8.63470885 0.360124705,8.76473588 C0.356602321,10.3151005 0.769155267,11.8380559 1.55481905,13.1749971 C1.5743921,13.2070606 1.57831688,13.2462754 1.56548596,13.2815766 L0.00384978482,17.8943389 C-0.00529437856,17.9229267 0.00213118679,17.9542232 0.0231462183,17.9756673 C0.0441612499,17.9971114 0.0753207388,18.0051879 0.104118774,17.9966552 L4.91063012,16.4683047 C4.94208855,16.4555089 4.97730729,16.4555089 5.00876572,16.4683047 C6.29154162,17.147829 7.72121862,17.5034844 9.17312886,17.5042578 C14.0213946,17.5172608 17.966469,13.6088646 17.9946665,8.76473588 C18.0032001,8.71144611 17.9989333,8.54305045 17.9989333,8.54305045 Z M3.22739113,12.7060471 C2.43788742,11.5432491 2.01712252,10.1698554 2.01988286,8.76473588 C2.01988286,8.53878726 2.01988286,8.31283865 2.05403061,8.07623208 C2.4407771,4.40705792 5.55467956,1.6322348 9.24708879,1.66644104 C12.939498,1.70064727 16.0013716,4.53268236 16.3199611,8.2083907 C16.3370281,8.42154978 16.3455617,8.6006034 16.3455617,8.76473588 C16.3245311,11.1995144 15.066923,13.4568471 13.006845,14.7575366 C10.9467669,16.0582261 8.3664292,16.2240908 6.15652565,15.1978766 C5.89198618,15.076376 5.39277462,14.7715585 5.23703768,14.6841633 C5.20517935,14.6641912 5.16605161,14.6594998 5.13036854,14.6713737 L2.7111125,15.440878 C2.68540933,15.4491341 2.65724459,15.4419762 2.63861343,15.4224526 C2.61998227,15.402929 2.61416681,15.3744791 2.62364381,15.3492196 L3.40446189,13.0471016 C3.41726504,13.0074915 3.41096112,12.9641885 3.38739483,12.9298641 L3.22739113,12.7060471 Z" id="Shape"></path>
                <path d="M13.9561433,10.8320702 C13.8234139,10.7251189 13.6765554,10.6354987 13.5193839,10.5655386 C13.3643343,10.4920851 12.2353114,9.96112063 12.0212993,9.88766706 C11.8072873,9.81421348 11.6347673,9.75335195 11.4491446,10.0177848 C11.3093816,10.2276522 10.8988278,10.678867 10.7634324,10.8236755 C10.6695291,10.9265105 10.5843611,10.9600893 10.3769004,10.8593529 C9.74936617,10.5966212 9.1616932,10.253526 8.62986297,9.83939756 C8.15923523,9.4252093 7.75584916,8.94558331 7.43314235,8.41649686 C7.33705529,8.26119502 7.40038539,8.18774144 7.51612662,8.07441307 C7.59037571,8.00725551 7.90921004,7.63579029 7.9332318,7.60011284 C7.98345913,7.52665926 8.07517859,7.348272 8.07517859,7.348272 C8.14199513,7.21420376 8.13545395,7.05704844 8.05770822,6.92853728 C8.02276747,6.85928106 7.44187753,5.51612995 7.38728261,5.39020954 C7.22131406,5.01034962 7.04442652,4.99146155 6.87627417,5.00195492 C6.7932899,5.00195492 6.02677723,5.00195492 5.78437579,5.2663878 L5.74069986,5.31045994 C5.25625192,5.7631965 4.98829233,6.38837223 5.00039276,7.03766831 C5.00322525,7.28443153 5.04218791,7.52958318 5.11613398,7.76590805 C5.28708118,8.29630071 5.55394515,8.79359499 5.90448461,9.23497957 C5.90448461,9.23497957 6.47445557,9.99260074 6.75616535,10.3032044 C7.5340647,11.216709 8.52959315,11.9365911 9.65843124,12.401878 C10.9512389,12.8887703 11.5037395,13 11.8160224,13 C11.980357,12.984151 12.1436604,12.9596294 12.3051929,12.9265464 C12.6982763,12.8929676 13.6373089,12.4228648 13.8338506,11.893999 C14.0303924,11.3651333 14.0260248,10.9453985 13.9561433,10.8320702 Z" id="Path"></path>
            </g>
        </g>
    </g>
</svg>