<?xml version="1.0" encoding="UTF-8"?>
<svg width="32px" height="32px" viewBox="0 0 32 32" version="1.1" xmlns="http://www.w3.org/2000/svg" xmlns:xlink="http://www.w3.org/1999/xlink">
    <!-- Generator: Sketch 59.1 (86144) - https://sketch.com -->
    <title>Group 50</title>
    <desc>Created with Sketch.</desc>
    <g id="Page-1" stroke="none" stroke-width="1" fill="none" fill-rule="evenodd">
        <g id="Group-50" transform="translate(1.000000, 1.000000)" fill-rule="nonzero">
            <path d="M30,15 C30,6.71572875 23.2842712,0 15,0 C6.71572875,0 0,6.71572875 0,15 C0,23.2842712 6.71572875,30 15,30 C18.9782473,30 22.793556,28.4196474 25.6066017,25.6066017 C28.4196474,22.793556 30,18.9782473 30,15 Z" id="Path" stroke="#FDE174"></path>
            <rect id="Rectangle" stroke="#FDE174" x="7.5" y="10" width="15" height="11" rx="4"></rect>
            <path d="M18.3578363,15.7305756 L12.9033492,18.4694686 C12.8199754,18.5113159 12.7192431,18.5100734 12.637093,18.4661843 C12.554943,18.4222953 12.5030768,18.3420113 12.5,18.2539774 L12.5,12.7460226 C12.5030768,12.6579887 12.554943,12.5777047 12.637093,12.5338157 C12.7192431,12.4899266 12.8199754,12.4886841 12.9033492,12.5305314 L18.3578363,15.2845088 C18.4454955,15.3291284 18.5,15.4146377 18.5,15.5075422 C18.5,15.6004467 18.4454955,15.685956 18.3578363,15.7305756 Z" id="Path" fill="#FDE174"></path>
        </g>
    </g>
</svg>