<?xml version="1.0" encoding="UTF-8"?>
<svg width="30px" height="28px" viewBox="0 0 30 28" version="1.1" xmlns="http://www.w3.org/2000/svg" xmlns:xlink="http://www.w3.org/1999/xlink">
    <!-- Generator: Sketch 59.1 (86144) - https://sketch.com -->
    <title>w-slot room-all</title>
    <desc>Created with Sketch.</desc>
    <g id="Page-1" stroke="none" stroke-width="1" fill="none" fill-rule="evenodd" opacity="0.9">
        <path d="M15,8.10018719e-13 L18.5600974,10.6692784 L30,10.6949594 L20.7604219,17.3148949 L24.2705143,28 L15,21.4219704 L5.72918146,28 L9.23937519,17.3148949 L-1.36424205e-12,10.6949594 L11.4399026,10.6692784 L15,8.10018719e-13 Z M17.1812557,24.934898 L18.8884268,26.1461871 C17.6504717,26.5320995 16.3329952,26.7409322 14.966528,26.7409322 C13.7670375,26.7409322 12.6051336,26.5803329 11.5017604,26.2801071 L11.09078,26.1610184 L12.8046455,24.9449514 C13.5048179,25.0778359 14.2274064,25.1483094 14.966528,25.1483094 C15.7242114,25.1483094 16.4646516,25.0744516 17.1812557,24.934898 Z M1.98458261,14.0888385 L3.68475505,15.3069958 C3.93391526,17.3912706 4.77122163,19.3015802 6.02898574,20.87328 L6.26970281,21.1639655 L5.69611522,22.9102763 C3.4206309,20.630835 2.00852013,17.5188502 1.98458261,14.0888385 Z M27.9478649,14.1373139 C27.9111472,17.5229313 26.5224668,20.5958969 24.2871488,22.8599096 L24.2871488,22.8599096 L23.711634,21.1079251 C25.0656253,19.5062443 25.9722081,17.5280078 26.2421138,15.3593533 L26.2421138,15.3593533 Z M12.8134699,1.43505263 L12.2315651,3.17897454 C9.0652091,3.94994124 6.41919254,6.0275195 4.92427288,8.79271278 L4.76853636,9.09158647 L2.98437975,9.09556803 C4.6788721,5.12346737 8.36656862,2.1666637 12.8134699,1.43505263 Z M17.7744193,3.19649339 L17.1904859,1.44679822 C21.4893525,2.17805567 25.0700815,4.99099809 26.8114368,8.7857552 L26.9485749,9.09556803 L25.1644183,9.09148693 C23.7630032,6.29882295 21.2053623,4.16145979 18.1082851,3.28549263 L17.7744193,3.19649339 L17.1904859,1.44679822 Z" id="Combined-Shape" fill="#F8F8F8" fill-rule="nonzero"></path>
    </g>
</svg>