<?xml version="1.0" encoding="UTF-8"?>
<svg width="25px" height="28px" viewBox="0 0 25 28" version="1.1" xmlns="http://www.w3.org/2000/svg" xmlns:xlink="http://www.w3.org/1999/xlink">
    <!-- Generator: Sketch 59.1 (86144) - https://sketch.com -->
    <title>w-slot room-jackpot</title>
    <desc>Created with Sketch.</desc>
    <defs>
        <linearGradient x1="50%" y1="100%" x2="50%" y2="0.122337342%" id="linearGradient-1">
            <stop stop-color="#CCCCCC" offset="0%"></stop>
            <stop stop-color="#F0F0F0" offset="64%"></stop>
            <stop stop-color="#FFFFFF" offset="100%"></stop>
            <stop stop-color="#FBFBFA" offset="100%"></stop>
            <stop stop-color="#F0EEEB" offset="100%"></stop>
        </linearGradient>
    </defs>
    <g id="Page-1" stroke="none" stroke-width="1" fill="none" fill-rule="evenodd" opacity="0.9">
        <path d="M24.8915706,1.67501855 C24.7807668,1.08097739 24.2286583,0.64747924 23.5830866,0.64747924 L20.7035595,0.64747924 C20.4783271,0.261791705 20.0402063,0 19.5366908,0 L5.4630905,0 C4.95962393,0 4.5214542,0.261791705 4.29627072,0.647524992 L1.4169886,0.647524992 C0.771465881,0.647524992 0.21940631,1.08111464 0.108504547,1.67497279 C0.0927804017,1.75933908 -0.269217844,3.7659208 0.423134416,5.9669476 C0.923367986,7.5573711 2.04144782,9.47450809 4.5172415,10.6699564 C4.11027514,11.6185739 3.61121721,12.6641394 2.99944507,13.8180909 C2.8730151,14.0564577 2.91553397,14.3427266 3.106575,14.5400541 C4.98602678,16.4802957 7.11814256,17.7880189 9.38663224,18.411021 C9.38237056,18.457459 9.37903959,18.5042173 9.37903959,18.5516619 L9.37903959,18.6337864 C9.37903959,19.2613178 9.75617416,19.8061758 10.3100462,20.0826081 C10.3945451,21.0901539 10.148592,22.7390482 9.57125625,24.0456734 L7.05994853,24.0456734 C6.5022557,24.0456734 6.05022325,24.4679166 6.05022325,24.9887549 L6.05022325,27.0569185 C6.05022325,27.5778025 6.50220671,28 7.05994853,28 L17.9399307,28 C18.4976235,28 18.949656,27.5777568 18.949656,27.0569185 L18.949656,24.9887549 C18.949656,24.4679166 18.4976725,24.0456734 17.9399307,24.0456734 L15.428525,24.0456734 C14.8510913,22.7390482 14.6048933,21.0902911 14.6889513,20.0828369 C15.2431173,19.8065419 15.6203988,19.2615009 15.6203988,18.6337864 L15.6203988,18.5516619 C15.6203988,18.5042173 15.6170678,18.4575505 15.6128061,18.4111125 C17.8813448,17.7881104 20.0134606,16.4803872 21.8928634,14.5400541 C22.0839044,14.3427266 22.1264233,14.0564577 22,13.8180909 C21.388858,12.6652832 20.8889183,11.620038 20.4805804,10.67078 C22.9575497,9.47542312 24.0760704,7.55782862 24.5765489,5.96699336 C25.2691461,3.76601231 24.9073927,1.75938483 24.8915706,1.67501855 Z M2.99533034,5.34055994 C2.72743204,4.52439387 2.65772656,3.72771806 2.65615905,3.12859846 L4.29646666,3.12859846 C4.52169912,3.51433175 4.9597219,3.77594044 5.46318847,3.77594044 C5.69581766,3.77594044 5.91429021,3.71975725 6.10444951,3.62161968 C6.1057721,3.63237135 6.10729063,3.642757 6.10861322,3.65360018 C6.22167032,4.61081899 6.12957875,6.0886016 5.4187102,8.29132121 C4.23293327,7.62403145 3.42105791,6.6377145 2.99533034,5.34055994 Z M8.3745067,15.4102072 C7.34195447,15.6602865 6.23323075,14.7964928 5.66338967,14.0905428 C5.52383175,13.9177383 5.40073275,13.7445678 5.46132705,13.5169527 C5.49684108,13.3833117 5.59931745,13.2725924 5.67945671,13.1597227 C6.02915975,12.6668388 6.31900327,12.1329612 6.57392057,11.5924039 C7.10839457,10.459361 7.51335255,9.27695189 7.81377681,8.07139239 C8.04047882,7.16170968 8.18620883,6.24214458 8.3745067,5.3255076 C8.63564509,6.83966287 8.57020129,8.40592943 8.24841963,9.90681669 C8.12434093,10.4858055 7.95578397,11.0550034 7.74671651,11.6119857 C7.48650884,12.3053082 7.1643353,13.0336766 6.72004246,13.6570446 C7.18152899,14.3092363 7.71056567,14.9384148 8.3745067,15.4102072 Z M22.0045489,5.34051418 C21.5781355,6.6388583 20.7650845,7.62599878 19.5774462,8.29338004 C18.8689779,6.10479773 18.768363,4.61566868 18.8959686,3.62198569 C19.0859809,3.72003176 19.3042575,3.7759862 19.5366418,3.7759862 C20.0401083,3.7759862 20.4781801,3.51428599 20.7033636,3.12864421 L22.3438182,3.12864421 C22.3422506,3.72822133 22.2724962,4.52462263 22.0045489,5.34051418 Z" id="Shape" fill="url(#linearGradient-1)" fill-rule="nonzero"></path>
    </g>
</svg>