<?xml version="1.0" encoding="UTF-8"?>
<svg width="30px" height="28px" viewBox="0 0 30 28" version="1.1" xmlns="http://www.w3.org/2000/svg" xmlns:xlink="http://www.w3.org/1999/xlink">
    <!-- Generator: Sketch 59.1 (86144) - https://sketch.com -->
    <title>w-slot room icon -new  hover</title>
    <desc>Created with Sketch.</desc>
    <g id="Page-1" stroke="none" stroke-width="1" fill="none" fill-rule="evenodd">
        <path d="M21.3978416,9.73839432 L14.9032009,27 L8.53376478,9.73839432 L21.3978416,9.73839432 Z M29.8422533,9.73839432 L16.3223695,26.3582742 L22.5748745,9.73839432 L29.8422533,9.73839432 Z M7.35893806,9.73839432 L13.3373168,25.9399235 L0.157195124,9.73839432 L7.35893806,9.73839432 Z M14.9997242,1.32058984 L21.0111967,8.64609503 L8.98880329,8.64609503 L14.9997242,1.32058984 Z M4.38988068,1.69142545 L6.95574636,8.64609503 L-3.90798505e-13,8.64609503 L4.38988068,1.69142545 Z M25.6057068,1.68432551 L30,8.64609503 L22.9857881,8.64609503 L25.6057068,1.68432551 Z M13.8408928,1 L7.95572797,8.17258329 L5.3087827,1 L13.8408928,1 Z M24.6851501,1 L22.0051111,8.12452212 L16.1591072,1 L24.6851501,1 Z" id="Combined-Shape" fill="#FDE174" fill-rule="nonzero"></path>
    </g>
</svg>