<?xml version="1.0" encoding="UTF-8"?>
<svg width="30px" height="28px" viewBox="0 0 30 28" version="1.1" xmlns="http://www.w3.org/2000/svg" xmlns:xlink="http://www.w3.org/1999/xlink">
    <!-- Generator: Sketch 59.1 (86144) - https://sketch.com -->
    <title>w-slot room-other</title>
    <desc>Created with Sketch.</desc>
    <defs>
        <linearGradient x1="50%" y1="100%" x2="50%" y2="0.122337342%" id="linearGradient-1">
            <stop stop-color="#CCCCCC" offset="0%"></stop>
            <stop stop-color="#F0F0F0" offset="64%"></stop>
            <stop stop-color="#FFFFFF" offset="100%"></stop>
            <stop stop-color="#FBFBFA" offset="100%"></stop>
            <stop stop-color="#F0EEEB" offset="100%"></stop>
        </linearGradient>
    </defs>
    <g id="Page-1" stroke="none" stroke-width="1" fill="none" fill-rule="evenodd" opacity="0.9">
        <path d="M27.6560995,8.34368587 C26.0935904,6.78128335 24.2084112,6 21.9999051,6 L8.00004013,6 C5.79186247,6 3.90608126,6.78122862 2.34384577,8.34368587 C0.781227197,9.90614311 0,11.7915447 0,13.9998905 C0,16.2085101 0.781446105,18.0937474 2.34384577,19.6560952 C3.90608126,21.218443 5.79164356,22 8.00004013,22 C10.0001459,22 11.7602193,21.3330415 13.2812454,19.9997811 L16.7186998,19.9997811 C18.2396165,21.3330415 19.9996899,22 21.9999051,22 C24.2080281,22 26.0935904,21.2188261 27.6560995,19.6560952 C29.2186633,18.0934191 30,16.2085648 30,13.9998905 C30,11.7915447 29.2186086,9.90614311 27.6560995,8.34368587 Z M12.9998942,14.9999726 C12.9998942,15.1458749 12.9531574,15.2657272 12.8593554,15.3591463 C12.7656081,15.4530031 12.6459203,15.4997948 12.4999635,15.4997948 L9.49994162,15.4997948 L9.49994162,18.4998769 C9.49994162,18.6457792 9.45320481,18.7656314 9.35940282,18.8591052 C9.26565556,18.9529074 9.14602245,18.999699 9.00001095,18.999699 L7.00001459,18.999699 C6.854222,18.999699 6.73436998,18.9529074 6.64062272,18.8591052 C6.54698491,18.7656314 6.5002481,18.6457792 6.5002481,18.4998769 L6.5002481,15.4997948 L3.49995257,15.4997948 C3.35415998,15.4997948 3.23430796,15.4530031 3.1405607,15.3591463 C3.04692289,15.2657272 3.00018607,15.1458749 3.00018607,14.9999726 L3.00018607,12.9999726 C3.00018607,12.8541798 3.04692289,12.7343275 3.1405607,12.6405801 C3.23430796,12.5467779 3.35415998,12.500041 3.49995257,12.500041 L6.50013864,12.500041 L6.50013864,9.50001368 C6.50013864,9.35422082 6.54687546,9.23436859 6.64051327,9.14062115 C6.7342058,9.04676426 6.85411255,9.00008209 6.99990514,9.00008209 L8.99990149,9.00008209 C9.14585826,9.00008209 9.2655461,9.04681899 9.35929337,9.14062115 C9.45309536,9.23436859 9.49983217,9.35422082 9.49983217,9.50001368 L9.49983217,12.500041 L12.4998541,12.500041 C12.6458108,12.500041 12.7654987,12.5467779 12.8592459,12.6405801 C12.9530479,12.7343275 12.9997847,12.8541798 12.9997847,12.9999726 L12.9997847,14.9999726 L12.9998942,14.9999726 Z M21.4141079,17.413928 C21.0234122,17.8046244 20.5519943,18.0001095 19.9996899,18.0001095 C19.4479875,18.0001095 18.9764054,17.8046244 18.5858739,17.413928 C18.1951782,17.0236147 17.9999124,16.5520317 17.9999124,15.9999453 C17.9999124,15.4478041 18.1951782,14.97644 18.5858739,14.5859078 C18.9764054,14.1955945 19.4479875,13.9998905 19.9996899,13.9998905 C20.5519943,13.9998905 21.0234122,14.1955945 21.4141079,14.5859078 C21.8044205,14.97644 21.9999124,15.4478041 21.9999124,15.9999453 C21.9999124,16.5520317 21.8044205,17.0236147 21.4141079,17.413928 Z M25.4137175,13.4139828 C25.0234596,13.8044603 24.5518775,13.9998905 23.999741,13.9998905 C23.4475971,13.9998905 22.9762339,13.8046792 22.5857571,13.4139828 C22.1950614,13.0232316 21.999741,12.5520317 21.999741,11.9997811 C21.999741,11.4478588 22.1950614,10.9764947 22.5857571,10.5859078 C22.9762339,10.1952114 23.4475971,9.99994527 23.999741,9.99994527 C24.5518775,9.99994527 25.0234596,10.1952114 25.4137175,10.5859078 C25.8044132,10.9764947 25.9999526,11.4478588 25.9999526,11.9997811 C25.9999526,12.551977 25.8046321,13.0233958 25.4137175,13.4139828 Z" id="Shape" fill="url(#linearGradient-1)" fill-rule="nonzero"></path>
    </g>
</svg>