<?xml version="1.0" encoding="UTF-8"?>
<svg width="28px" height="28px" viewBox="0 0 28 28" version="1.1" xmlns="http://www.w3.org/2000/svg" xmlns:xlink="http://www.w3.org/1999/xlink">
    <!-- Generator: Sketch 59.1 (86144) - https://sketch.com -->
    <title>w-slot room icon-Popular </title>
    <desc>Created with Sketch.</desc>
    <defs>
        <linearGradient x1="50%" y1="100%" x2="50%" y2="0.122337342%" id="linearGradient-1">
            <stop stop-color="#CCCCCC" offset="0%"></stop>
            <stop stop-color="#F0F0F0" offset="64%"></stop>
            <stop stop-color="#FFFFFF" offset="100%"></stop>
            <stop stop-color="#FBFBFA" offset="100%"></stop>
            <stop stop-color="#F0EEEB" offset="100%"></stop>
        </linearGradient>
    </defs>
    <g id="Page-1" stroke="none" stroke-width="1" fill="none" fill-rule="evenodd" opacity="0.9">
        <path d="M18.7703375,24.4666909 L20.6357677,26.3304074 C20.5325858,26.3859126 20.4273786,26.4374804 20.3232114,26.4905248 C18.3900698,27.4663771 16.2361135,27.9888367 14.0695674,27.9998284 C11.857479,28.0108748 9.65184963,27.4883604 7.6786943,26.4915091 C7.57348709,26.4384648 7.46778722,26.3859126 7.36411268,26.3303527 L7.36411268,26.3303527 L9.22959756,24.4666909 C9.28871504,24.4937052 9.34881781,24.5167276 9.40842794,24.5427576 C10.2334999,24.9025296 11.1015963,25.1602596 11.9887417,25.3144164 C14.2023081,25.698742 16.5271577,25.4405198 18.5894818,24.5432497 C18.6495846,24.5172197 18.7107274,24.4937052 18.7703375,24.4666909 L18.7703375,24.4666909 Z M24.0040408,19.6864639 L25.8264465,21.5071434 C24.7233582,23.2331633 23.2531393,24.7014532 21.525431,25.803901 L21.525431,25.803901 L19.7030252,23.9832762 C21.4918764,22.9603403 22.9801589,21.4735668 24.0040408,19.6864639 L24.0040408,19.6864639 Z M3.99540169,19.6864639 C5.01879093,21.47302 6.5075661,22.9603403 8.29641722,23.9832215 L8.29641722,23.9832215 L6.47401146,25.8038464 C4.74630315,24.7018907 3.27652221,23.2331086 2.17299594,21.5070887 L2.17299594,21.5070887 Z M10.6858034,4.01617393 C13.4554573,3.09440503 16.5907637,3.39314871 19.1354974,4.82190144 C20.8061136,5.75925553 22.2076905,7.15393955 23.1534607,8.8189311 C23.8647863,10.0709969 24.3011061,11.4607593 24.4503777,12.8834966 C24.5340727,13.6796543 24.5280515,14.486913 24.4303982,15.2865705 C24.1778899,17.3484104 23.305305,19.3016461 21.9427566,20.8695173 C21.1638291,21.765803 20.2320719,22.5289857 19.2011835,23.1179969 C17.1909703,24.2665441 14.823589,24.707906 12.5308161,24.390132 C10.5090531,24.1093796 8.59747845,23.2275854 7.06463886,21.8818991 C6.17097964,21.0972253 5.41257903,20.1603633 4.8284655,19.124467 C3.68733394,17.1011799 3.26103124,14.7215659 3.60166834,12.4255652 C3.89720099,10.4323001 4.78237576,8.54911574 6.11733601,7.03981214 C7.34057517,5.65611978 8.93203959,4.59966195 10.6858034,4.01617393 Z M14.0004876,6.98228361 C13.8577298,6.98228361 13.7224712,7.04281981 13.6272811,7.14841638 C13.5942191,7.18543806 10.3006092,10.8521709 9.59530486,11.6083538 C7.92425079,13.3994488 8.41514482,15.6909654 9.27273143,16.6758407 C10.0331574,17.549104 10.8787015,17.9919972 11.7853885,17.9919972 C12.2958789,17.9919972 12.7456643,17.8098417 13.1314059,17.5290894 C12.6119384,18.9658261 11.6531405,19.9937384 10.9944185,19.9937384 C10.7179348,19.9937384 10.4935074,20.2174544 10.4935074,20.49416 C10.4935074,20.7708657 10.7178801,20.9945817 10.9944185,20.9945817 L10.9944185,20.9945817 L17.0055713,20.9945817 C17.282055,20.9945817 17.5064825,20.7708657 17.5064825,20.49416 C17.5064825,20.2174544 17.2821098,19.9937384 17.0055713,19.9937384 C16.3458641,19.9937384 15.3865735,18.9638574 14.8675987,17.5255895 C15.280381,17.8228567 15.7387057,17.9919972 16.2085801,17.9919972 C17.1107238,17.9919972 17.9312525,17.5631034 18.7177339,16.6798327 C19.620425,15.6654275 20.012133,13.3383657 18.3986638,11.6083538 C17.6933594,10.8521709 14.4062634,7.18543806 14.3732014,7.14890854 C14.2785039,7.04281981 14.1427527,6.98228361 14.0004876,6.98228361 Z M1.6460293,7.35955483 L3.51151418,9.22321666 C3.15281341,10.0089295 2.88831743,10.8401402 2.71802625,11.6863892 C2.27119664,13.9083466 2.47706778,16.2639539 3.34417888,18.3612844 C3.37373761,18.4328669 3.403789,18.5039573 3.43493515,18.5749383 C3.46099063,18.6344902 3.48452815,18.6950264 3.51156892,18.7545783 L3.51156892,18.7545783 L1.64608404,20.6182401 C1.58997717,20.5146669 1.53786621,20.4085782 1.48476996,20.3034737 C1.37354152,20.0837498 1.26888168,19.861565 1.17018834,19.6368647 C0.336631889,17.7361811 -0.0540908535,15.6558577 0.00601191642,13.5800184 C0.0375412383,12.4860467 0.193326742,11.3955748 0.473368428,10.3371483 C0.613115579,9.80818118 0.783954144,9.28774486 0.985829386,8.77928454 C1.03788561,8.64771264 1.67761336,7.39209235 1.6460293,7.35955483 L1.6460293,7.35955483 Z M26.3534679,7.35911735 C26.4090274,7.46170624 26.4606457,7.56675596 26.5137419,7.6713682 C27.4995806,9.62159626 27.9990139,11.7955403 28,13.9789448 C28.0004918,15.4101584 27.7876141,16.8384189 27.3638294,18.2026434 C27.1394019,18.9247577 26.8559117,19.6283885 26.5132493,20.3059893 C26.460153,20.4100546 26.4085895,20.515159 26.3529752,20.6182401 L26.3529752,20.6182401 L24.4874904,18.7545783 C24.5145311,18.6950264 24.5380687,18.6344902 24.5641241,18.5744462 C24.5951608,18.5039026 24.6252122,18.4328122 24.6547709,18.3617765 C24.7013533,18.2496725 24.7459104,18.1370762 24.7884969,18.0239878 C24.9948607,17.4754982 25.15716,16.9105483 25.2749023,16.3365208 C25.734267,14.1015484 25.5279032,11.7264186 24.6552636,9.61558091 C24.6257048,9.54454521 24.5956535,9.47345483 24.5646168,9.40291129 C24.5385613,9.34286725 24.5150238,9.28233105 24.487983,9.22277918 L24.487983,9.22277918 Z M21.5254857,2.17301893 C23.253194,3.2750293 24.7229202,4.74381138 25.8265013,6.46983129 L25.8265013,6.46983129 L24.0040955,8.2904561 C22.9801589,6.50384531 21.4918764,5.01652504 19.70308,3.99364374 L19.70308,3.99364374 Z M6.47401146,2.17301893 L8.29641722,3.99364374 C6.5075661,5.01657973 5.01879093,6.50335314 3.99540169,8.2904561 L3.99540169,8.2904561 L2.17299594,6.46983129 C3.2760843,4.74375669 4.74630315,3.27546678 6.47401146,2.17301893 L6.47401146,2.17301893 Z M12.1410239,0.118725487 C13.5926864,-0.0689531347 15.0729772,-0.0339001054 16.5141299,0.222298712 C17.9513415,0.478060051 19.3509478,0.954475013 20.6362603,1.64656727 L20.6362603,1.64656727 L18.7707754,3.51022911 C18.6580691,3.45920809 18.5433921,3.41212438 18.4291531,3.36460319 C17.0335974,2.78406815 15.5212847,2.49183197 14.0099573,2.48980863 C12.511165,2.48778529 11.0104021,2.7715453 9.62382356,3.34305733 C9.55167835,3.37307935 9.48008051,3.40364821 9.40842794,3.43465456 C9.34881781,3.46068458 9.2882224,3.48370693 9.22959756,3.51022911 L9.22959756,3.51022911 L7.36411268,1.64656727 C7.46630929,1.59155425 7.57053121,1.53998638 7.67420575,1.48743418 C7.78340887,1.43242115 7.89211935,1.37636912 8.00230776,1.32430908 C9.30623133,0.706260193 10.7108736,0.303888603 12.1410239,0.118725487 Z" id="Combined-Shape" fill="url(#linearGradient-1)" fill-rule="nonzero"></path>
    </g>
</svg>