<?xml version="1.0" encoding="UTF-8"?>
<svg width="26px" height="28px" viewBox="0 0 26 28" version="1.1" xmlns="http://www.w3.org/2000/svg" xmlns:xlink="http://www.w3.org/1999/xlink">
    <!-- Generator: Sketch 59.1 (86144) - https://sketch.com -->
    <title>w-slot room-table</title>
    <desc>Created with Sketch.</desc>
    <defs>
        <linearGradient x1="50%" y1="100%" x2="50%" y2="0.122337342%" id="linearGradient-1">
            <stop stop-color="#CCCCCC" offset="0%"></stop>
            <stop stop-color="#F0F0F0" offset="64%"></stop>
            <stop stop-color="#FFFFFF" offset="100%"></stop>
            <stop stop-color="#FBFBFA" offset="100%"></stop>
            <stop stop-color="#F0EEEB" offset="100%"></stop>
        </linearGradient>
    </defs>
    <g id="Page-1" stroke="none" stroke-width="1" fill="none" fill-rule="evenodd" opacity="0.9">
        <path d="M6.21275723,13.440797 C6.21275723,13.440797 12.4258623,16.8331701 12.4258623,20.7953535 C12.4258623,22.6168362 10.9648214,24.7564821 9.16237628,24.7564821 C8.63679114,24.7564821 8.14309127,24.6284315 7.70626311,24.4028632 C7.5827222,24.3389845 7.43349915,24.3590858 7.33024886,24.4525012 C7.22746236,24.5459165 7.19227262,24.6940684 7.2414339,24.8248148 L7.2414339,24.8248148 L8.10610436,27.1080414 C8.18228116,27.3098748 8.15572943,27.5369082 8.03444947,27.7150655 C7.91316951,27.8932814 7.71304598,27.9999414 7.49889293,27.9999414 L7.49889293,27.9999414 L4.92696936,27.9999414 C4.71287429,27.9999414 4.51269279,27.8932228 4.39141283,27.7150655 C4.27019084,27.5369082 4.24358114,27.3099334 4.31975794,27.1080414 L4.31975794,27.1080414 L5.1844284,24.8248148 C5.23358968,24.6940684 5.19839994,24.5459165 5.09561343,24.4525012 C4.99242112,24.3586169 4.84319807,24.3390431 4.71965716,24.4028632 C4.28277103,24.6284315 3.78912913,24.7564821 3.26348602,24.7564821 C1.46109886,24.7564821 1.15107923e-12,22.6168362 1.15107923e-12,20.7953535 C1.15107923e-12,16.8331701 6.21275723,13.440797 6.21275723,13.440797 Z M20.1776924,13.2730713 C21.9368315,13.2730713 23.3632044,14.7145046 23.3632044,16.4937335 C23.3632044,17.1709657 23.1545008,17.7975051 22.801502,18.3161539 C22.8060239,18.3161539 22.810082,18.3147474 22.8145459,18.3147474 C24.5736851,18.3147474 26,19.7571769 26,21.5358784 C26,23.3151074 24.5736271,24.7565407 22.814488,24.7565407 C22.420502,24.7565407 22.0450095,24.6822303 21.6983297,24.5483193 C21.5747888,24.5004395 21.4354792,24.5305036 21.3421423,24.6248566 C21.2488054,24.7192097 21.2190652,24.8604462 21.2664293,24.9848633 L21.2664293,24.9848633 L22.0702279,27.1081 C22.1468684,27.3099334 22.119795,27.5369668 21.998573,27.7151241 C21.877235,27.89334 21.6770535,28 21.4629585,28 L21.4629585,28 L18.8909769,28 C18.6768818,28 18.4767003,27.8932814 18.3554784,27.7151241 C18.2341984,27.5369668 18.2075887,27.309992 18.2837655,27.1076311 L18.2837655,27.1076311 L19.0875641,24.9853322 C19.1349282,24.8609151 19.1051879,24.7196785 19.0118511,24.6253255 C18.9185142,24.5309724 18.7791466,24.5009084 18.6557216,24.5483193 C18.3095056,24.6822303 17.9343609,24.7565407 17.5412446,24.7565407 C15.78083,24.7565407 14.3544571,23.3151074 14.3544571,21.5358784 C14.3544571,19.7572355 15.78083,18.3147474 17.5412446,18.3147474 C17.5453027,18.3147474 17.5488971,18.3161539 17.5529552,18.3161539 C17.2000143,17.7975051 16.9912527,17.1709657 16.9912527,16.4937335 C16.9912527,14.7145046 18.4176256,13.2730713 20.1776924,13.2730713 Z M20.2201579,19.7286917 C20.2131579,19.7286917 20.2061579,19.7308917 20.1991579,19.7308917 C20.1913579,19.7308917 20.1843579,19.7286917 20.1765579,19.7286917 C20.1835579,19.7378917 20.1921579,19.7456917 20.1983579,19.7550917 C20.2045579,19.7456917 20.2131579,19.7378917 20.2201579,19.7286917 Z M20.1772865,0.168135962 C20.2723626,0.168135962 20.3630327,0.209159027 20.4261076,0.280714973 L20.4261076,0.280714973 L25.413543,5.90351208 C25.5271125,6.03109381 25.5275763,6.22478128 25.4149343,6.35330068 L25.4149343,6.35330068 L20.4274989,12.0417347 C20.3639603,12.1141697 20.2728264,12.155603 20.1772865,12.155603 C20.0817467,12.155603 19.9906708,12.1141697 19.9270742,12.0417347 L19.9270742,12.0417347 L14.9392909,6.35330068 C14.826533,6.22478128 14.8269968,6.03109381 14.9405663,5.90304324 L14.9405663,5.90304324 L19.9284655,0.280714973 C19.9915404,0.209159027 20.0822105,0.168135962 20.1772865,0.168135962 Z M9.16243425,-5.61328761e-13 C10.9648794,-5.61328761e-13 12.4259782,2.13964586 12.4259782,3.96118716 C12.4259782,7.92325338 6.21275723,11.315685 6.21275723,11.315685 C6.21275723,11.315685 6.39488462e-13,7.92325338 6.39488462e-13,3.96118716 C6.39488462e-13,2.13964586 1.46109886,-5.61328761e-13 3.26348602,-5.61328761e-13 C4.57223128,-5.61328761e-13 5.69296941,0.783423333 6.21275723,1.9072209 C6.73300883,0.783423333 7.85374696,-5.61328761e-13 9.16243425,-5.61328761e-13 Z" id="Combined-Shape" fill="url(#linearGradient-1)" fill-rule="nonzero"></path>
    </g>
</svg>