<svg xmlns="http://www.w3.org/2000/svg" width="16" height="18" viewBox="0 0 16 18">
    <path fill="#D9D9D9" fill-rule="evenodd" d="M15.691 4.44L10.997.191c-.101-.09-.233-.191-.37-.191H5.792C4.311 0 3.29.754 3.29 1.847v1.377h-.921C1.013 3.224 0 4.063 0 5.204V15.95C0 17.156 1.118 18 2.369 18h8.011c1.282 0 2.229-.884 2.229-2.05v-1.174h1.196c1.209 0 2.092-.944 2.092-2.182v-7.61c0-.007.067-.015.067-.022 0-.007.036-.016.036-.025 0-.225-.107-.417-.309-.497zm-4.727-2.65L14.02 4.3h-3.057V1.79zm.549 14.16c0 .635-.532.974-1.133.974H2.37c-.637 0-1.273-.37-1.273-.974V5.204c0-.7.849-.905 1.273-.905h4.209V8.43c0 .297.383.435.685.435h4.25v7.085zm-.627-8.16H7.674V5.137l3.212 2.653zm2.92 5.911h-1.197v-5.36c0-.152.004-.295-.11-.397L7.72 3.63a.522.522 0 0 0-.474-.305c-.01 0-.01-.048-.021-.047-.01-.001-.012-.055-.023-.055H4.386V1.847c0-.553.827-.773 1.406-.773h4.076v3.863c0 .297.382.436.685.436h4.248v7.22c0 .645-.392 1.108-.996 1.108z"/>
</svg>
