<svg xmlns="http://www.w3.org/2000/svg" width="16" height="11" viewBox="0 0 16 11">
    <defs>
        <linearGradient id="a" x1="50%" x2="50%" y1="100%" y2=".122%">
            <stop offset="0%" stop-color="#CCC"/>
            <stop offset="64%" stop-color="#F0F0F0"/>
            <stop offset="100%" stop-color="#FFF"/>
            <stop offset="100%" stop-color="#FBFBFA"/>
            <stop offset="100%" stop-color="#F0EEEB"/>
        </linearGradient>
    </defs>
    <path fill="url(#a)" fill-rule="nonzero" d="M1218.815 781.627c-1.566-2.773-4.487-4.627-7.815-4.627-3.33 0-6.25 1.855-7.815 4.627a1.444 1.444 0 0 0 0 1.413c1.566 2.773 4.487 4.627 7.815 4.627 3.33 0 6.25-1.855 7.815-4.627a1.444 1.444 0 0 0 0-1.413zm-8.196 4.516a3.807 3.807 0 0 1-3.81-3.81 3.807 3.807 0 0 1 3.81-3.81 3.807 3.807 0 0 1 3.81 3.81 3.807 3.807 0 0 1-3.81 3.81zm3.048-3.81a3.048 3.048 0 1 1-5.737-1.435v.001a1.255 1.255 0 1 0 1.255-1.255h-.001a3.048 3.048 0 0 1 4.483 2.69z" opacity=".8" transform="translate(-1203 -777)"/>
</svg>
