<svg xmlns="http://www.w3.org/2000/svg" width="16" height="11" viewBox="0 0 16 11">
    <defs>
        <linearGradient id="a" x1="50%" x2="50%" y1="100%" y2=".122%">
            <stop offset="0%" stop-color="#CCC"/>
            <stop offset="64%" stop-color="#F0F0F0"/>
            <stop offset="100%" stop-color="#FFF"/>
            <stop offset="100%" stop-color="#FBFBFA"/>
            <stop offset="100%" stop-color="#F0EEEB"/>
        </linearGradient>
    </defs>
    <path fill="url(#a)" fill-rule="nonzero" d="M1211 827c3.328 0 6.25 1.854 7.815 4.627.247.436.247.977 0 1.413a9.265 9.265 0 0 1-1.798 2.267l1.686 1.054-.707 1.13-2.096-1.308a8.82 8.82 0 0 1-4.9 1.484c-3.328 0-6.25-1.854-7.815-4.627a1.444 1.444 0 0 1 0-1.413 9.265 9.265 0 0 1 1.798-2.267l-1.686-1.054.707-1.13 2.095 1.308A8.82 8.82 0 0 1 1211 827zm-3.835 3.723a3.807 3.807 0 0 0 3.454 5.42c1.196 0 2.263-.55 2.961-1.411l-.654-.408a3.048 3.048 0 0 1-5.109-3.193zm3.454-2.2a3.797 3.797 0 0 0-2.686 1.107l2.476 1.547a1.255 1.255 0 0 0-1.224-1.533h-.001a3.048 3.048 0 0 1 4.374 3.5l.668.42a3.807 3.807 0 0 0-3.607-5.04zm-1.434 3.631c.08 0 .158-.007.234-.022l-1.445-.901c.146.532.633.923 1.21.923z" opacity=".8" transform="translate(-1203 -827)"/>
</svg>
