<?xml version="1.0" encoding="UTF-8"?>
<svg width="23px" height="22px" viewBox="0 0 23 22" version="1.1" xmlns="http://www.w3.org/2000/svg" xmlns:xlink="http://www.w3.org/1999/xlink">
    <!-- Generator: Sketch 59.1 (86144) - https://sketch.com -->
    <title>Combined Shape</title>
    <desc>Created with Sketch.</desc>
    <g id="Welcome" stroke="none" stroke-width="1" fill="none" fill-rule="evenodd">
        <path d="M11.4967151,-3.99680289e-13 C17.6671536,-3.99680289e-13 22.7022093,3.90982606 22.98123,8.81726938 C22.9892946,8.95966665 23.011903,9.41445968 22.9920517,9.72079153 C22.9800582,9.90640285 22.9539345,10.1430346 22.9011356,10.4242745 C22.7596263,11.3199205 22.4587554,12.1754193 22.0223031,12.9720912 C21.8166907,13.3473565 20.8082045,14.7761384 20.4989244,15.1528674 C18.7992967,17.2231689 15.9531199,19.6128362 11.1933628,21.9356611 C10.7492594,22.1524283 10.2425005,21.7918698 10.2969536,21.2963022 L10.2969536,21.2963022 L10.5368232,19.1131563 C10.5750093,18.7651438 10.3266616,18.4507267 9.98222816,18.4142736 C4.3485324,17.8179197 -1.37312384e-12,13.9409224 -1.37312384e-12,9.24690068 C-1.37312384e-12,4.13997573 5.14720163,-3.99680289e-13 11.4967151,-3.99680289e-13 Z M4.58688557,6.63042933 C4.26209663,6.63042933 3.99879151,6.89668364 3.99879151,7.22511042 L3.99879151,7.22511042 L3.99879151,11.7147715 L4.00648884,11.8112302 C4.05206737,12.0937866 4.29457552,12.3094526 4.58688557,12.3094526 L4.58688557,12.3094526 L6.9391929,12.3094526 L7.03458325,12.301669 C7.28296242,12.260701 7.47907539,12.0623914 7.51958964,11.8112302 L7.51958964,11.8112302 L7.52728697,11.7147715 L7.51958964,11.6183127 C7.47401111,11.3357564 7.23150295,11.1200904 6.9391929,11.1200904 L6.9391929,11.1200904 L5.17497964,11.1200904 L5.17497964,7.22511042 L5.1672823,7.12865164 C5.12676805,6.87749047 4.93065509,6.67918091 4.68227592,6.63821288 L4.68227592,6.63821288 Z M8.8025247,6.63042933 L8.5454231,6.63042933 C8.29163004,6.63042933 8.08587983,6.83848407 8.08587983,7.09511977 L8.08587983,7.09511977 L8.08587983,11.8447621 C8.08587983,12.1013978 8.29163004,12.3094526 8.5454231,12.3094526 L8.5454231,12.3094526 L8.8025247,12.3094526 C9.05631776,12.3094526 9.26206796,12.1013978 9.26206796,11.8447621 L9.26206796,11.8447621 L9.26206796,7.09511977 C9.26206796,6.83848407 9.05631776,6.63042933 8.8025247,6.63042933 L8.8025247,6.63042933 Z M16.2011919,6.63042933 L16.2011919,6.63042933 L16.1058016,6.63821288 C15.826375,6.68430192 15.6130979,6.92952632 15.6130979,7.22511042 L15.6130979,7.22511042 L15.6130979,11.7147715 L15.6207952,11.8112302 C15.6663737,12.0937866 15.9088819,12.3094526 16.2011919,12.3094526 L16.2011919,12.3094526 L18.5534993,12.3094526 L18.6488896,12.301669 C18.8972688,12.260701 19.0933818,12.0623914 19.133896,11.8112302 L19.133896,11.8112302 L19.1415933,11.7147715 L19.133896,11.6183127 C19.0883175,11.3357564 18.8458093,11.1200904 18.5534993,11.1200904 L18.5534993,11.1200904 L16.789286,11.1200904 L16.789286,10.0645523 L18.5534993,10.0645523 L18.6488896,10.0567688 C18.8972688,10.0158008 19.0933818,9.8174912 19.133896,9.56633002 L19.133896,9.56633002 L19.1415933,9.46987124 L19.133896,9.37341246 C19.0883175,9.09085614 18.8458093,8.87519015 18.5534993,8.87519015 L18.5534993,8.87519015 L16.789286,8.87519015 L16.789286,7.81965212 L18.5534993,7.81965212 L18.6488896,7.81190635 C18.8972688,7.77102864 19.0933818,7.57272912 19.133896,7.32156906 L19.133896,7.32156906 L19.1415933,7.22511042 L19.133896,7.12865164 C19.0883175,6.84609532 18.8458093,6.63042933 18.5534993,6.63042933 L18.5534993,6.63042933 Z M14.1430006,6.63040963 C13.8182116,6.63049903 13.5549065,6.89668364 13.5549065,7.22511042 L13.5549065,7.22511042 L13.5549065,9.96787832 L13.5181412,9.9193892 C13.2196579,9.52573619 11.2036663,6.86718244 11.1704787,6.82949276 C11.0582638,6.70215071 10.8929055,6.62380782 10.7093501,6.63084753 C10.389455,6.64311474 10.1441401,6.92581827 10.1441401,7.24950545 L10.1441401,7.24950545 L10.1441401,11.7147018 L10.1518375,11.8111612 C10.1923517,12.0623256 10.3884647,12.2606502 10.6368439,12.3016215 L10.6368439,12.3016215 L10.7322342,12.3094057 L10.8276245,12.3016215 C11.1070511,12.2555288 11.3203283,12.0102859 11.3203283,11.7147018 L11.3203283,11.7147018 L11.3203283,8.98859218 L11.3298997,9.00113505 C11.4937197,9.21580794 13.7059151,12.1144911 13.7396337,12.1468423 C13.8436461,12.246374 13.9833632,12.3079888 14.1375553,12.3094057 C14.4641363,12.31238 14.7310946,12.0202669 14.7310946,11.6900279 L14.7310946,11.6900279 L14.7310946,7.22511042 L14.7233973,7.12865109 C14.6828831,6.87748708 14.4867701,6.6791646 14.2383909,6.63819373 L14.2383909,6.63819373 Z" id="Combined-Shape" fill="#F8F8F8" fill-rule="nonzero"></path>
    </g>
</svg>